<?xml version="1.0" encoding="utf-8"?>
<!-- Generator: Adobe Illustrator 17.0.0, SVG Export Plug-In . SVG Version: 6.00 Build 0)  -->
<!DOCTYPE svg PUBLIC "-//W3C//DTD SVG 1.1//EN" "http://www.w3.org/Graphics/SVG/1.1/DTD/svg11.dtd">
<svg version="1.1" id="Layer_1" xmlns="http://www.w3.org/2000/svg" xmlns:xlink="http://www.w3.org/1999/xlink" x="0px" y="0px"
	 width="448.095px" height="425.095px" viewBox="0 0 448.095 425.095" enable-background="new 0 0 448.095 425.095"
	 xml:space="preserve">
<g>
	<path fill="none" stroke="#FFFFFF" stroke-width="2" stroke-miterlimit="10" d="M229.965,382.581
		c-98.633,1.145-179.584-80.763-177.924-179.989c1.591-95.044,75.856-173.311,172.524-175.654
		c105.551-2.558,184.145,81.381,183.012,180.151C406.443,305.994,325.209,383.419,229.965,382.581z M230.727,30.485
		C135.597,29.045,57.049,105.074,55.321,202c-1.744,97.829,75.279,175.129,169.63,177.477
		c100.772,2.507,176.843-78.271,179.248-169.529C406.828,110.16,326.225,29.631,230.727,30.485z"/>
	<path fill="none" stroke="#FFFFFF" stroke-width="2" stroke-miterlimit="10" d="M230.727,30.485
		c95.497-0.854,176.1,79.675,173.47,179.462c-2.405,91.258-78.476,172.036-179.248,169.529
		C130.599,377.129,53.576,299.829,55.321,202C57.049,105.074,135.597,29.045,230.727,30.485z M229.613,375.683
		c96.559,0.566,171.7-78.238,171.586-171.059c-0.106-86.306-66.945-171.508-171.938-171.446
		c-95.66,0.056-169.965,76.223-170.19,172.028C58.849,299.693,136.409,376.343,229.613,375.683z"/>
	<path fill="none" stroke="#FFFFFF" stroke-width="2" stroke-miterlimit="10" d="M229.613,375.683
		c-93.204,0.661-170.764-75.99-170.542-170.477c0.225-95.805,74.531-171.972,170.19-172.028
		c104.992-0.061,171.831,85.141,171.938,171.446C401.313,297.445,326.172,376.248,229.613,375.683z M229.213,372.616
		c96.022-0.29,168.666-76.386,168.688-167.819c0.021-88.943-70.053-168.761-168.729-168.238
		c-94.015,0.498-167.033,75.302-166.798,169.039C62.608,299.098,138.03,372.058,229.213,372.616z"/>
	<path fill="none" stroke="#FFFFFF" stroke-width="2" stroke-miterlimit="10" d="M229.213,372.616
		c-91.183-0.558-166.605-73.518-166.839-167.018c-0.235-93.737,72.783-168.541,166.798-169.039
		c98.676-0.523,168.75,79.295,168.729,168.238C397.879,296.23,325.235,372.326,229.213,372.616z M131.789,262.367
		c11.163,0,22.327,0.003,33.49-0.004c1.165-0.001,2.345,0.048,3.491-0.117c0.997-0.144,2.003-0.602,2.008-1.831
		c0.005-1.291-1.014-1.589-2.053-1.64c-1.33-0.065-2.665-0.039-3.998-0.04c-21.993-0.002-43.987-0.015-65.98,0.012
		c-3.53,0.004-7.004-0.188-10.225-1.795c-6.701-3.343-7.587-10.305-1.739-14.737c4.371-3.313,8.834-6.542,13.49-9.434
		c35.918-22.306,72.949-42.711,109.499-63.938c1.127-0.655,2.251-1.995,3.565-1.146c1.494,0.966,1.708,2.765,1.576,4.495
		c-0.203,2.647-0.482,5.29-0.617,7.94c-0.045,0.869,0.529,1.649,1.407,1.833c0.937,0.196,1.482-0.479,1.873-1.285
		c1.946-4.016-0.123-14.458-3.189-17.865c-4.78-5.311-11.339-3.868-17.245-4.89c-0.761-0.132-1.558,0.608-1.599,1.583
		c-0.042,0.998,0.69,1.597,1.513,1.7c1.976,0.248,4.038,0.046,5.95,0.506c2.197,0.528,5.722-0.2,6.276,2.005
		c0.618,2.463-2.899,3.074-4.747,4.154c-31.173,18.227-62.83,35.621-93.671,54.421c-9.093,5.543-18.464,10.695-26.597,17.639
		c-7.321,6.25-5.859,15.868,2.891,20.114c3.49,1.693,7.259,2.33,11.142,2.325C109.462,262.357,120.626,262.367,131.789,262.367z
		 M286.499,256.616c0,0.04,0,0.079,0,0.119c-26.83,0-53.66,0.009-80.49-0.028c-1.236-0.002-2.913,0.759-3.634-0.714
		c-0.778-1.59,0.59-2.825,1.546-3.91c1.54-1.747,3.268-3.328,4.867-5.026c0.792-0.841,1.792-1.852,0.61-2.978
		c-1.131-1.077-2.17-0.188-3.008,0.651c-1.884,1.885-3.826,3.728-5.552,5.752c-3.713,4.356-4.142,10.082-0.79,14.734
		c2.026,2.811,4.641,5.202,7.045,7.731c0.789,0.83,1.736,1.839,2.938,0.592c1.194-1.238,0.101-2.106-0.668-2.949
		c-2.13-2.333-4.4-4.549-6.388-6.995c-1.34-1.648-1.24-3.125,1.446-3.175c1.333-0.025,2.665-0.05,3.998-0.05
		c11.999-0.004,23.997-0.002,35.996-0.002s23.997,0,35.996,0c12.165,0,24.332,0.11,36.495-0.032
		c11.695-0.136,23.384,0.473,35.082,0.064c6.312-0.221,12.633,0.224,18.94-0.701c4.621-0.678,6.919-3.394,8.198-7.595
		c1.275-4.187,0.847-7.877-2.322-11.069c-2.264-2.281-5.128-3.666-7.815-5.326c-9.752-6.028-20.312-10.669-29.703-17.314
		c-0.867-0.613-1.726-1.185-2.63-0.269c-0.919,0.931-0.309,1.858,0.328,2.648c1.933,2.394,4.581,3.776,7.227,5.227
		c8.901,4.88,17.739,9.875,26.602,14.826c4.024,2.248,6.417,5.309,5.008,10.206c-1.37,4.761-4.968,5.632-9.353,5.62
		C339.812,256.581,313.155,256.616,286.499,256.616z M241.879,133.606c-0.566-8.689,0.976-18.069-0.96-27.292
		c-1.687-8.037-6.784-13.333-14.54-15.618c-7.212-2.126-13.62,0.224-18.536,5.648c-7.359,8.118-6.96,18.285-6.494,28.309
		c0.067,1.438,0.067,3.934,2.422,3.547c1.973-0.324,1.135-2.473,1.07-3.847c-0.314-6.677-0.341-13.305,1.795-19.765
		c3.682-11.133,16.713-14.643,25.397-6.933c4.629,4.11,6.154,9.291,6.15,15.194c-0.01,13.659-0.055,27.319,0.025,40.978
		c0.041,7.02,2.113,13.396,8.412,17.148c19.579,11.662,39.403,22.898,59.957,32.793c1.379,0.664,3.833,0.645,3.769,2.575
		c-0.061,1.831-2.034,3.067-3.663,3.794c-2.723,1.216-5.632,2.007-8.447,3.024c-0.946,0.341-2.036,0.842-1.779,2.052
		c0.327,1.539,1.682,1.484,2.823,1.145c2.548-0.758,5.127-1.488,7.563-2.534c9.439-4.054,11.091-19.747,2.783-25.941
		c-0.399-0.297-0.807-0.602-1.253-0.813c-1.088-0.516-2.326-0.959-3.058,0.365c-0.608,1.1,0.255,1.79,1.189,2.338
		c2.487,1.459,3.562,3.934,4.277,6.513c0.428,1.544,1.172,3.595-0.192,4.728c-1.239,1.03-2.799-0.417-4.082-1.055
		c-19.523-9.719-38.608-20.236-57.311-31.452c-4.859-2.914-7.228-7.241-7.295-12.805
		C241.813,148.538,241.879,141.375,241.879,133.606z"/>
	<path fill="none" stroke="#FFFFFF" stroke-width="2" stroke-miterlimit="10" d="M131.789,262.367
		c-11.163,0-22.327-0.01-33.49,0.005c-3.883,0.005-7.652-0.631-11.142-2.325c-8.751-4.245-10.212-13.863-2.891-20.114
		c8.133-6.944,17.504-12.096,26.597-17.639c30.841-18.8,62.498-36.194,93.671-54.421c1.847-1.08,5.365-1.691,4.747-4.154
		c-0.554-2.205-4.078-1.476-6.276-2.005c-1.912-0.46-3.974-0.257-5.95-0.506c-0.823-0.104-1.555-0.703-1.513-1.7
		c0.041-0.975,0.838-1.715,1.599-1.583c5.906,1.022,12.465-0.421,17.245,4.89c3.066,3.407,5.135,13.849,3.189,17.865
		c-0.391,0.807-0.936,1.481-1.873,1.285c-0.878-0.183-1.452-0.964-1.407-1.833c0.136-2.65,0.415-5.293,0.617-7.94
		c0.133-1.73-0.082-3.529-1.576-4.495c-1.314-0.849-2.438,0.491-3.565,1.146c-36.55,21.227-73.581,41.632-109.499,63.938
		c-4.655,2.891-9.119,6.121-13.49,9.434c-5.847,4.432-4.962,11.394,1.739,14.737c3.221,1.607,6.695,1.799,10.225,1.795
		c21.993-0.027,43.987-0.014,65.98-0.012c1.333,0,2.668-0.026,3.998,0.04c1.04,0.051,2.059,0.349,2.053,1.64
		c-0.005,1.229-1.011,1.687-2.008,1.831c-1.146,0.165-2.326,0.116-3.491,0.117C154.116,262.37,142.952,262.367,131.789,262.367z"/>
	<path fill="none" stroke="#FFFFFF" stroke-width="2" stroke-miterlimit="10" d="M241.879,133.606
		c0,7.769-0.066,14.932,0.021,22.094c0.068,5.563,2.437,9.891,7.295,12.805c18.702,11.217,37.788,21.734,57.311,31.452
		c1.283,0.639,2.843,2.085,4.082,1.055c1.363-1.133,0.619-3.184,0.192-4.728c-0.715-2.579-1.79-5.055-4.277-6.513
		c-0.934-0.548-1.797-1.238-1.189-2.338c0.732-1.325,1.97-0.881,3.058-0.365c0.446,0.212,0.854,0.516,1.253,0.813
		c8.308,6.194,6.656,21.888-2.783,25.941c-2.436,1.046-5.015,1.776-7.563,2.534c-1.141,0.339-2.496,0.394-2.823-1.145
		c-0.257-1.21,0.834-1.711,1.779-2.052c2.814-1.016,5.724-1.808,8.447-3.024c1.629-0.727,3.602-1.963,3.663-3.794
		c0.064-1.93-2.389-1.91-3.769-2.575c-20.554-9.895-40.378-21.131-59.957-32.793c-6.299-3.752-8.37-10.129-8.412-17.148
		c-0.08-13.659-0.035-27.319-0.025-40.978c0.004-5.903-1.521-11.084-6.15-15.194c-8.684-7.711-21.715-4.2-25.397,6.933
		c-2.136,6.46-2.11,13.088-1.795,19.765c0.065,1.374,0.903,3.523-1.07,3.847c-2.355,0.387-2.355-2.109-2.422-3.547
		c-0.466-10.023-0.866-20.19,6.494-28.309c4.916-5.423,11.324-7.773,18.536-5.648c7.756,2.286,12.853,7.581,14.54,15.618
		C242.855,115.537,241.313,124.917,241.879,133.606z"/>
</g>
</svg>
