<?xml version="1.0" encoding="utf-8"?>
<!-- Generator: Adobe Illustrator 17.0.0, SVG Export Plug-In . SVG Version: 6.00 Build 0)  -->
<!DOCTYPE svg PUBLIC "-//W3C//DTD SVG 1.1//EN" "http://www.w3.org/Graphics/SVG/1.1/DTD/svg11.dtd">
<svg version="1.1" id="Layer_1" xmlns:sketch="http://www.bohemiancoding.com/sketch/ns"
	 xmlns="http://www.w3.org/2000/svg" xmlns:xlink="http://www.w3.org/1999/xlink" x="0px" y="0px" width="35px" height="35px"
	 viewBox="-1 -0.29 35 35" enable-background="new -1 -0.29 35 35" xml:space="preserve">
<title>Artboard 38</title>
<description>Created with Sketch.</description>
<g id="Page-1" sketch:type="MSPage">
	<g id="Artboard-38" sketch:type="MSArtboardGroup">
		
			<g id="Oval-2-_x2B_-Triangle-6-_x2B_-Triangle-8" transform="translate(16.500000, 17.000000) rotate(-180.000000) translate(-16.500000, -17.000000) translate(-1.000000, -0.000000)" sketch:type="MSLayerGroup">
			<g id="Oval-2-_x2B_-Triangle-6" transform="translate(0.500000, -0.210001)" sketch:type="MSShapeGroup">
				<path id="Oval-2" fill="#333333" stroke="#FFFFFF" stroke-width="2" stroke-miterlimit="10" d="M33.5,17
					c0-9.113-7.387-16.5-16.5-16.5S0.5,7.887,0.5,17S7.887,33.5,17,33.5S33.5,26.113,33.5,17z M3.5,17C3.5,9.544,9.544,3.5,17,3.5
					S30.5,9.544,30.5,17S24.456,30.5,17,30.5S3.5,24.456,3.5,17z"/>
			</g>
			<path id="Triangle-6" sketch:type="MSShapeGroup" fill="#333333" stroke="#FFFFFF" stroke-width="2" stroke-miterlimit="10" d="
				M15,20.79v-8l7,4L15,20.79z"/>
		</g>
		
			<g id="EDITION-_x2B_-Rectangle-82-_x2B_-S-S-_x2B_-15" transform="translate(-438.000000, -118.000000)" sketch:type="MSLayerGroup">
		</g>
	</g>
</g>
</svg>
