<!DOCTYPE svg PUBLIC "-//W3C//DTD SVG 1.1//EN" "http://www.w3.org/Graphics/SVG/1.1/DTD/svg11.dtd">
<svg version="1.1" id="Layer_1" xmlns="http://www.w3.org/2000/svg" xmlns:xlink="http://www.w3.org/1999/xlink" x="0px" y="0px"
	 width="447px" height="424px" viewBox="0 0 447 424" style="enable-background:new 0 0 447 424;" xml:space="preserve">
<style type="text/css">
	.st0{fill:none;stroke:#FFB2F9;stroke-width:2;stroke-miterlimit:10;}
</style>
<g>
	<path class="st0" d="M406.105,205.167c1.328,96.789-79.318,179.299-179.934,177.941c-97.033-1.31-176.81-80.88-174.941-180.454
		c1.8-95.884,75.845-172.761,172.313-175.088C331.938,24.952,407.169,112.06,406.105,205.167z"/>
	<path class="st0" d="M230.48,30.896c94.49-0.567,175.027,79.374,172.79,178.749c-2.067,91.846-78.68,172.513-178.569,170.363
		c-94.79-2.04-171.816-79.708-170.45-176.815C55.611,106.441,133.975,29.07,230.48,30.896z"/>
	<path class="st0" d="M228.28,376.104c-93.844-0.059-170.332-76.442-170.209-170.41c0.119-91.628,69.994-171.116,169.78-172.001
		c101.613-0.902,172.058,81.277,172.256,171.598C400.309,298.253,324.856,376.791,228.28,376.104z"/>
	<path class="st0" d="M228.274,373.104c-91.127,0.029-167.067-74.066-167.108-167.355c-0.041-93.671,73.796-168.59,167.183-168.899
		c99.844-0.331,169.025,81.763,168.713,168.474C396.726,298.875,321.858,373.194,228.274,373.104z"/>
	<path class="st0" d="M200.506,257.175c45.751,0,91.356,0.006,136.96-0.004c9.766-0.002,19.532-0.117,29.297-0.064
		c3.887,0.021,6.971-1.008,8.049-5.134c1.064-4.074,0.393-7.643-3.591-9.917c-8.956-5.111-17.912-10.222-26.902-15.273
		c-2.897-1.628-6.002-2.936-8.169-5.589c-0.614-0.751-1.203-1.737-0.181-2.643c0.758-0.672,1.488-0.318,2.214,0.222
		c10.575,7.877,22.832,12.902,33.884,19.972c5.895,3.771,7.632,7.779,5.855,13.794c-1.434,4.855-4.592,7.037-9.783,7.694
		c-8.555,1.083-17.153,0.049-25.754,1.225c-3.124,0.427-7.249-0.63-10.917-0.635c-40.985-0.054-81.97-0.034-122.955-0.034
		c-1.333,0-2.682-0.126-3.994,0.043c-1.221,0.157-2.96-0.657-3.55,0.846c-0.524,1.332,0.739,2.457,1.625,3.422
		c1.689,1.84,3.478,3.588,5.192,5.405c0.787,0.834,1.883,1.801,0.936,2.985c-1.025,1.282-2.041,0.229-2.978-0.461
		c-11.247-8.273-11.466-18.848-0.572-27.656c1.025-0.829,2.103-2.124,3.363-0.666c1.001,1.159-0.164,2.13-0.931,2.975
		c-2.122,2.339-4.334,4.602-6.366,7.016C200.668,255.377,200.084,256.372,200.506,257.175z"/>
	<path class="st0" d="M209.603,164.735c-3.32-3.24-7.256-2.55-10.965-2.818c-1.441-0.104-3.58,0.062-3.454-1.91
		c0.153-2.381,2.284-1.117,3.585-1.066c2.651,0.105,5.407-0.036,7.923,0.647c8.344,2.262,12.893,11.916,9.938,20.535
		c-0.334,0.974-0.699,2.047-1.973,1.713c-1.146-0.301-1.273-1.387-1.21-2.441c0.168-2.818,0.579-5.65,0.421-8.449
		c-0.145-2.57-0.786-4.503-4.306-2.423c-37.556,22.179-75.923,42.974-112.877,66.177c-3.658,2.297-6.869,5.336-10.612,7.457
		c-7.026,3.98-4.699,12.623,2.107,15.736c3.113,1.424,6.487,1.334,9.822,1.334c21.831,0,43.661,0,65.492,0.001
		c1.166,0,2.336-0.034,3.498,0.035c1.159,0.069,2.567,0.135,2.655,1.631c0.091,1.538-1.295,1.703-2.466,1.833
		c-0.66,0.073-1.331,0.046-1.998,0.046c-22.497,0.002-44.995,0.06-67.491-0.067c-3.107-0.018-6.25-0.786-9.304-1.511
		c-5.941-1.41-8.808-5.786-9.807-11.385c-0.856-4.796,2.454-7.682,5.778-10.282c7.757-6.066,16.288-10.954,24.66-16.091
		c32.08-19.682,65.154-37.651,97.59-56.717C207.587,166.145,208.501,165.469,209.603,164.735z"/>
	<path class="st0" d="M240.884,136.003c0,6.649-0.051,13.811,0.017,20.973c0.05,5.277,2.601,9.263,6.999,11.948
		c18.049,11.022,36.719,20.934,55.465,30.698c2.104,1.096,5.413,3.531,6.614,1.83c1.51-2.138,0.134-5.716-1.503-8.289
		c-0.695-1.092-1.74-2.008-2.769-2.825c-0.926-0.736-2.238-1.321-1.223-2.67c0.926-1.23,2.107-0.336,3.129,0.182
		c7.369,3.737,8.332,19.433,1.456,24.466c-3.289,2.408-7.311,3.125-11.064,4.448c-0.835,0.295-1.743,0.187-2.145-0.702
		c-0.558-1.234,0.337-1.795,1.304-2.21c3.202-1.376,6.734-1.897,9.732-3.815c1.316-0.842,2.629-1.858,2.634-3.414
		c0.005-1.654-1.86-1.655-2.984-2.185c-20.944-9.882-41.011-21.368-60.865-33.24c-7.275-4.351-8.297-11.69-8.403-19.15
		c-0.188-13.158-0.079-26.32-0.054-39.48c0.012-6.569-2.108-12.036-7.715-15.879c-8.723-5.979-20.85-2.025-23.91,8.125
		c-1.915,6.353-3.274,12.882-1.907,19.65c0.291,1.44,1.228,3.824-1.096,4.196c-2.1,0.336-1.665-2.096-1.91-3.39
		c-1.567-8.271-0.196-16.357,2.915-23.939c3.062-7.462,11.88-11.491,20.394-10.352c7.593,1.016,14.589,8.49,16.026,17.093
		C241.544,117.176,240.354,126.354,240.884,136.003z"/>
</g>
</svg>
