<?xml version="1.0" encoding="utf-8"?>
<!-- Generator: Adobe Illustrator 17.0.0, SVG Export Plug-In . SVG Version: 6.00 Build 0)  -->
<!DOCTYPE svg PUBLIC "-//W3C//DTD SVG 1.1//EN" "http://www.w3.org/Graphics/SVG/1.1/DTD/svg11.dtd">
<svg version="1.1" id="Layer_1" xmlns="http://www.w3.org/2000/svg" xmlns:xlink="http://www.w3.org/1999/xlink" x="0px" y="0px"
	 width="249.154px" height="370.251px" viewBox="0 0 249.154 370.251" enable-background="new 0 0 249.154 370.251"
	 xml:space="preserve">
<g>
	<g>
		<path fill="#231F20" d="M123.367,370.251h-0.25c-2.3,0-4.044-1.045-5.041-3.023c-2.254-4.465-0.031-13.166,3.524-18.418
			c-2.704-3.59-4.928-6.088-7.811-8.121c-0.269,0.174-0.53,0.342-0.785,0.51c-5.75,3.762-13.7,5.051-17.722,2.875
			c-1.698-0.916-2.631-2.432-2.631-4.262c0-1.928,0.884-3.512,2.557-4.592c3.794-2.441,10.481-1.65,14.847,0.334
			c1.379,0.627,2.615,1.275,3.751,1.973c1.465-0.93,3.088-1.943,4.837-3.035c0.682-0.428,1.385-0.865,2.106-1.316
			c-4.273-2.705-9.019-5.777-13.917-9.188c-0.4-0.275-0.8-0.547-1.199-0.811c-0.118,0.045-0.23,0.088-0.338,0.131
			c-5.773,2.215-18.744,4.852-24.018,1.227c-1.61-1.105-2.46-2.727-2.46-4.684c0-2.398,1.074-4.227,3.107-5.289
			c4.873-2.549,14.672-0.168,24.01,5.656c3.038-1.164,7.954-3.039,13.541-5.148c-9.644-3.613-19.842-7.371-25.358-9.209
			l-2.796-0.941c-9.951-3.359-21.229-7.166-31.842-5.934c-6.583,0.766-13.246,5.223-13.246,12.268c0,7.797,8.447,10.32,12.538,10.32
			c3.61,0,8.787-1.051,11.498-4.008c1.278-1.395,1.896-3.596,1.614-5.748c-0.215-1.635-0.926-2.98-1.902-3.604
			c-1.061-0.674-2.364-0.859-3.673-0.525c-1.413,0.365-2.654,1.314-3.322,2.539c-0.35,0.643-1.158,0.881-1.8,0.529
			c-0.644-0.352-0.881-1.156-0.53-1.799c1.028-1.887,2.846-3.285,4.989-3.838c2.028-0.523,4.073-0.219,5.761,0.854
			c1.654,1.055,2.788,3.061,3.108,5.498c0.388,2.953-0.468,5.9-2.289,7.887c-3.289,3.59-9.107,4.869-13.454,4.869
			c-4.957,0-15.191-3.172-15.191-12.975c0-8.598,7.844-14.002,15.594-14.902c11.208-1.305,22.783,2.605,32.997,6.055l2.786,0.934
			c6.091,2.033,17.841,6.381,28.287,10.311c10.442-3.928,22.188-8.273,28.288-10.311l2.783-0.934
			c10.217-3.449,21.794-7.361,33.004-6.055c7.746,0.9,15.588,6.305,15.588,14.902c0,9.803-10.232,12.975-15.189,12.975
			c-4.348,0-10.165-1.279-13.454-4.871c-1.821-1.986-2.676-4.934-2.288-7.887c0.321-2.439,1.455-4.441,3.109-5.496
			c1.687-1.072,3.731-1.377,5.76-0.854c2.143,0.553,3.961,1.951,4.989,3.838c0.351,0.643,0.113,1.447-0.53,1.799
			c-0.643,0.352-1.45,0.113-1.8-0.529c-0.668-1.225-1.91-2.174-3.322-2.539c-1.307-0.334-2.611-0.148-3.671,0.525
			c-0.977,0.623-1.688,1.969-1.903,3.602c-0.283,2.152,0.335,4.355,1.613,5.75c2.71,2.957,7.887,4.008,11.497,4.008
			c4.09,0,12.535-2.523,12.535-10.32c0-7.045-6.661-11.502-13.24-12.268c-10.614-1.232-21.896,2.574-31.849,5.936l-2.793,0.939
			c-5.523,1.84-15.719,5.596-25.359,9.209c5.587,2.109,10.503,3.984,13.541,5.148c9.338-5.824,19.139-8.201,24.014-5.656
			c2.033,1.062,3.107,2.891,3.107,5.289c0,1.957-0.852,3.578-2.46,4.684c-5.278,3.625-18.249,0.99-24.019-1.227
			c-0.109-0.043-0.222-0.086-0.34-0.131c-0.399,0.262-0.8,0.535-1.2,0.811c-4.899,3.41-9.645,6.482-13.918,9.188
			c0.722,0.451,1.425,0.891,2.108,1.316c1.769,1.103,3.38,2.109,4.837,3.035c1.136-0.697,2.373-1.346,3.751-1.973
			c4.364-1.986,11.051-2.777,14.846-0.334c1.673,1.08,2.557,2.664,2.557,4.592c0,1.83-0.934,3.346-2.632,4.262
			c-4.024,2.176-11.974,0.885-17.722-2.875c-0.254-0.168-0.516-0.336-0.783-0.51c-2.88,2.033-5.106,4.531-7.811,8.121
			c3.554,5.252,5.777,13.951,3.524,18.418C127.413,369.206,125.668,370.251,123.367,370.251z M123.242,351.171
			c-2.712,4.541-4.474,11.539-2.796,14.863c0.538,1.066,1.386,1.562,2.671,1.562h0.25c1.285,0,2.134-0.496,2.673-1.562
			C127.716,362.708,125.955,355.712,123.242,351.171z M116.186,339.161c2.562,1.967,4.683,4.324,7.057,7.424
			c2.376-3.1,4.497-5.457,7.057-7.422c-1.199-0.758-2.49-1.564-3.861-2.42c-1.021-0.637-2.089-1.303-3.196-1.998
			c-1.106,0.693-2.174,1.359-3.194,1.996C118.677,337.597,117.385,338.405,116.186,339.161z M135.186,339.138
			c5.325,3.373,12.004,4.086,14.753,2.602c1.111-0.602,1.24-1.387,1.24-1.928c0-1.021-0.426-1.771-1.339-2.361
			c-2.551-1.639-8.072-1.406-12.31,0.52C136.693,338.351,135.917,338.737,135.186,339.138z M101.475,336.358
			c-1.952,0-3.689,0.359-4.83,1.092c-0.914,0.59-1.339,1.34-1.339,2.361c0,0.541,0.128,1.326,1.24,1.928
			c2.746,1.486,9.428,0.772,14.753-2.602c-0.73-0.4-1.507-0.787-2.342-1.168C106.615,336.903,103.882,336.358,101.475,336.358z
			 M108.649,322.021c5.163,3.58,10.157,6.793,14.592,9.59c4.434-2.797,9.43-6.01,14.593-9.59c-3.623-1.387-8.879-3.385-14.593-5.537
			C117.527,318.636,112.272,320.636,108.649,322.021z M143.747,321.397c6.507,2.129,16.357,3.426,19.961,0.949
			c0.894-0.613,1.31-1.408,1.31-2.496c0-1.404-0.535-2.338-1.682-2.939C160.063,315.204,152.25,316.536,143.747,321.397z
			 M86.801,316.202c-1.507,0-2.75,0.242-3.649,0.709c-1.147,0.602-1.683,1.535-1.683,2.939c0,1.088,0.416,1.883,1.309,2.496
			c3.602,2.477,13.449,1.18,19.958-0.949C96.574,317.87,90.773,316.202,86.801,316.202z"/>
	</g>
	<g>
		<g>
			<path fill="#231F20" d="M31.462,227.483c-0.395,0-0.785-0.176-1.047-0.512c-13.583-17.377-20.47-35.414-20.47-53.611V28.936
				c0-0.732,0.594-1.327,1.326-1.327c0.734,0,1.328,0.594,1.328,1.327v144.425c0,17.589,6.698,35.078,19.908,51.978
				c0.452,0.576,0.349,1.41-0.228,1.863C32.036,227.392,31.748,227.483,31.462,227.483z"/>
		</g>
		<g>
			<path fill="#231F20" d="M212.86,230.634c-0.297,0-0.597-0.102-0.843-0.303c-0.566-0.469-0.647-1.303-0.18-1.869
				c14.643-17.75,22.068-36.289,22.068-55.101V28.936c0-0.732,0.594-1.327,1.327-1.327c0.733,0,1.328,0.594,1.328,1.327v144.425
				c0,19.443-7.629,38.552-22.675,56.789C213.622,230.47,213.243,230.634,212.86,230.634z"/>
		</g>
		<g>
			<path fill="#231F20" d="M235.237,30.156h-94.749c-6.205,0-10.536-2.903-11.034-7.395c-0.481-4.312,2.018-9.135,7.723-10.008
				c3.419-0.531,5.926,1.383,7.13,3.345c1.291,2.104,1.393,4.485,0.258,6.062c-1.061,1.481-2.889,2.288-4.781,2.128
				c-1.724-0.154-3.179-1.143-3.894-2.646c-0.313-0.662-0.032-1.454,0.63-1.768c0.661-0.315,1.453-0.033,1.768,0.629
				c0.426,0.896,1.268,1.1,1.732,1.141c0.936,0.083,1.879-0.32,2.389-1.031c0.486-0.676,0.333-1.991-0.365-3.128
				c-0.366-0.599-1.77-2.516-4.465-2.109c-4.241,0.651-5.816,4.132-5.487,7.092c0.339,3.059,3.634,5.034,8.396,5.034h94.749
				c0.733,0,1.327,0.594,1.327,1.328C236.563,29.561,235.97,30.156,235.237,30.156z"/>
		</g>
		<g>
			<path fill="#231F20" d="M107.122,30.156h-95.82c-0.733,0-1.328-0.595-1.328-1.327c0-0.733,0.594-1.328,1.328-1.328h95.82
				c4.762,0,8.058-1.976,8.396-5.034c0.329-2.961-1.248-6.442-5.489-7.093c-2.688-0.402-4.098,1.51-4.465,2.109
				c-0.697,1.138-0.851,2.453-0.366,3.127c0.511,0.712,1.445,1.111,2.391,1.033c0.464-0.041,1.305-0.245,1.731-1.141
				c0.315-0.663,1.107-0.944,1.769-0.629c0.662,0.314,0.943,1.106,0.629,1.768c-0.714,1.501-2.169,2.491-3.892,2.645
				c-1.896,0.174-3.721-0.646-4.785-2.128c-1.133-1.578-1.031-3.958,0.26-6.062c1.204-1.961,3.711-3.873,7.13-3.344
				c5.704,0.874,8.205,5.696,7.726,10.008C117.659,27.252,113.328,30.156,107.122,30.156z"/>
		</g>
		<g>
			<path fill="#231F20" d="M112.016,303.532c-1.265,0-2.605-0.277-3.982-0.902c-2.634-1.197-4.219-3.764-4.138-6.693
				c0.069-2.469,1.284-4.52,3.096-5.225c1.703-0.658,3.686-0.338,5.175,0.84c1.376,1.09,2.034,2.67,1.805,4.342
				c-0.1,0.727-0.776,1.23-1.495,1.135c-0.726-0.102-1.234-0.77-1.135-1.494c0.136-0.983-0.457-1.613-0.821-1.9
				c-0.744-0.586-1.754-0.764-2.569-0.447c-0.774,0.303-1.365,1.488-1.403,2.824c-0.02,0.701,0.108,3.076,2.583,4.203
				c3.904,1.773,7.129-0.281,8.474-2.938c1.39-2.75-0.289-6.207-4.276-8.809c-0.585-0.381-2.636-1.408-5.232-2.707
				c-7.607-3.807-21.769-10.891-34.742-19.365c-17.973-11.744-33.94-26.193-34.1-26.338c-0.542-0.492-0.582-1.332-0.089-1.875
				c0.491-0.541,1.333-0.584,1.875-0.09c0.157,0.141,15.976,14.455,33.767,26.078c12.847,8.391,26.918,15.434,34.478,19.217
				c2.982,1.492,4.782,2.393,5.495,2.857c5.197,3.393,7.236,8.191,5.195,12.227C118.53,301.329,115.576,303.532,112.016,303.532z"/>
		</g>
		<g>
			<path fill="#231F20" d="M133.284,303.532c-3.561,0-6.515-2.203-7.959-5.06c-2.041-4.037-0.003-8.834,5.195-12.227
				c0.712-0.465,2.512-1.365,5.494-2.857c7.561-3.783,21.632-10.826,34.479-19.217c17.798-11.629,33.61-25.938,33.768-26.078
				c0.544-0.494,1.383-0.451,1.874,0.09c0.494,0.543,0.453,1.383-0.09,1.875c-0.159,0.145-16.128,14.594-34.101,26.338
				c-12.974,8.475-27.135,15.56-34.743,19.365c-2.595,1.299-4.646,2.326-5.23,2.707c-3.987,2.602-5.665,6.059-4.276,8.809
				c1.343,2.656,4.568,4.711,8.474,2.938c2.474-1.127,2.602-3.502,2.582-4.203c-0.037-1.336-0.628-2.522-1.404-2.826
				c-0.816-0.314-1.824-0.139-2.567,0.449c-0.364,0.287-0.956,0.918-0.821,1.9c0.1,0.725-0.409,1.392-1.134,1.494
				c-0.727,0.096-1.396-0.408-1.496-1.135c-0.229-1.672,0.43-3.252,1.806-4.342c1.489-1.178,3.471-1.498,5.172-0.84
				c1.812,0.705,3.029,2.754,3.098,5.223c0.082,2.932-1.503,5.498-4.136,6.695C135.889,303.255,134.548,303.532,133.284,303.532z"/>
		</g>
	</g>
	<path fill="#231F20" d="M227.283,173.363c0,67.019-104.196,109.078-104.196,109.078S19.2,239.257,19.2,173.363
		c0-65.898,0-136.573,0-136.573h208.083C227.283,36.79,227.283,97.104,227.283,173.363z"/>
	<path fill="#E9CCD0" d="M118.729,5.934C118.29,3.91,119.161,0,123.697,0c4.229,0,5.089,3.816,4.744,5.916
		c-0.343,2.1-4.814,20.315-4.814,20.315C119.623,8.514,119.308,8.613,118.729,5.934z"/>
	<path fill="#FFFFFF" d="M191.355,140.015c-0.722-0.504-1.715-0.324-2.216,0.398c-0.039,0.053-3.827,5.458-8.999,9.597
		c-1.391,1.113-2.753,2.105-4.057,2.972c-0.006,0.003-0.012,0.007-0.018,0.01c-0.325,0.204-0.662,0.426-1.005,0.651
		c-0.732,0.46-1.44,0.874-2.117,1.239c-0.819,0.396-1.698,0.701-2.664,0.778c-3.649,0.292-5.321-1.223-4.258-5.253
		c0.999-3.811,1.904-5.714,4.457-8.865c2.983-3.393,6.354-5.269,8.497-6.208c1.59-0.692,2.889-0.786,3.566-0.253
		c0.099,0.078,0.178,0.183,0.255,0.289c0.038,0.049,0.07,0.097,0.101,0.143c0.119,0.206,0.191,0.45,0.235,0.712
		c-0.015,0.411-0.299,0.77-0.599,1.256c-0.933,1.51-0.129,3.339,1.994,2.702c2.122-0.637,2.43-3.503,1.489-5.604
		c-0.053-0.119-0.119-0.219-0.182-0.323c-0.314-0.655-0.758-1.231-1.325-1.677c-1.17-0.921-3.301-1.697-6.811-0.163
		c-2.564,1.122-6.675,3.439-10.185,7.706c0.2-1.717-0.022-3.076-0.273-3.963c-0.567-2.011-1.773-3.595-3.305-4.343
		c-5.095-2.494-12.698,4.347-14.411,7.788c-0.391,0.788-0.07,1.745,0.717,2.136c0.787,0.39,1.742,0.071,2.136-0.717
		c0.893-1.794,3.432-4.14,5.876-5.483c0.002-0.001,0.003-0.001,0.004-0.001c1.555-0.643,3.106-0.801,4.139,0.794
		c1.288,1.984,0.237,5.781-3.037,11.442c-1.102,1.911-2.843,3.668-4.336,5.41c-0.029,0.034-0.058,0.067-0.087,0.101
		c-0.42,0.371-0.852,0.745-1.305,1.126c-2.333,1.957-6.268,3.946-8.91,3.832c-0.481-0.024-0.945-0.13-1.397-0.268
		c-1.482-0.527-1.954-1.793-2.142-2.932c-0.135-0.828-0.092-1.723,0.079-2.65c0.653-3.551,3.166-7.559,4.568-9.934
		c2.757-4.669,2.925-8.822,2.394-12.43c-0.272-1.849-0.941-4.64-3.114-7.463c-1.012-1.637-2.245-2.904-3.667-3.914
		c1.632-0.179,3.373-0.496,5.202-0.969c0,0,0.001,0,0.001,0c10.451-2.322,15.593-7.382,17.964-13.427
		c2.221-5.665,0.782-12.949-2.785-18.92c-0.018-0.031-0.039-0.056-0.058-0.085c-1.148-2.482-2.737-4.738-4.72-6.734
		c9.39-4.2,17.958-2.811,25.538,4.191c0.646,0.597,1.656,0.557,2.25-0.09c0.598-0.645,0.557-1.653-0.088-2.25
		c-8.872-8.196-19.257-9.575-30.296-4.144c-5.225-4.051-12.396-6.678-20.999-7.446c-14.713-1.312-26.74,5.82-34.01,13.832
		c-17.54-5.169-41.646,3.682-50.755,25.773c-5.211,12.63-3.433,27.884,4.529,38.856c6.292,8.669,15.297,13.342,25.569,13.342
		c0.871,0,1.752-0.032,2.64-0.101c9.692-0.737,17.064-3.266,22.919-7.082c6.857-3.691,13.11-9.316,18.116-17.305
		c3.313-5.285,5.784-11.517,8.17-17.982c0.766,0.161,1.596,0.312,2.497,0.436c3.777,0.985,6.684,2.27,8.681,4.876
		c2.532,4.557,1.195,9.752-0.595,12.988c-2.761,4.985-5.184,8.395-6.051,13.213c-0.329,1.831-0.017,4.423,1.151,6.493
		c1.278,2.517,4.612,5.124,8.25,5.306c0.131,0.007,0.263,0.01,0.398,0.01c3.604,0,8.036-2.335,10.717-4.584
		c0.091-0.077,0.173-0.151,0.264-0.228c1.805-1.233,3.306-2.652,4.297-3.999c0.005-0.007,0.01-0.015,0.016-0.021
		c0.612-0.638,1.191-1.277,1.738-1.923c-0.007,0.024-0.012,0.049-0.019,0.073c-0.772,2.08-1.11,3.971-0.562,5.205
		c0.958,2.156,2.435,3.532,4.545,3.847c0.445,0.104,0.914,0.154,1.403,0.154c4.654-0.001,10.998-4.443,14.769-7.464
		c5.545-4.436,9.46-10.031,9.625-10.265C192.256,141.508,192.077,140.517,191.355,140.015z M115.623,113.534
		c-0.039,0.017-0.076,0.039-0.115,0.055c-2.489,1.041-6.579,1.704-11.917-1.038c-4.932-2.533-6.798-6.637-7.496-9.632
		c-1.181-5.076,0.11-10.953,3.368-15.334c0.313-0.421,0.645-0.843,0.987-1.264c6.213,2.328,10.828,6.715,13.342,12.766
		C115.591,103.413,116.183,108.365,115.623,113.534z M55.795,145.371c-7.327-10.099-8.961-24.139-4.164-35.772
		c8.216-19.926,29.513-28.251,45.566-24.293c-0.097,0.126-0.196,0.252-0.29,0.379c-3.858,5.191-5.322,11.904-3.914,17.956
		c1.2,5.164,4.449,9.334,9.143,11.746c5.378,2.762,9.796,2.61,12.92,1.725c-0.69,3.325-1.833,6.699-3.442,10.021
		c-5.107,10.544-19.797,17.918-32.083,16.114c-8.535-1.258-14.02-6.846-15.442-15.73c-0.138-0.87-0.963-1.465-1.823-1.321
		c-0.869,0.139-1.46,0.956-1.32,1.824c1.659,10.374,8.095,16.901,18.122,18.378c13.542,1.995,29.754-6.193,35.414-17.876
		c2.073-4.278,3.43-8.651,4.081-12.932c2.819-1.682,5.012-4.258,5.904-7.077c0.264-0.839-0.201-1.733-1.04-1.998
		c-0.834-0.267-1.732,0.199-1.997,1.039c-0.424,1.344-1.302,2.643-2.451,3.746c0.189-4.772-0.544-9.344-2.242-13.433
		c-2.708-6.514-7.537-11.348-14.023-14.088c6.784-7.001,17.492-12.981,30.459-11.824c7.447,0.666,13.622,2.735,18.242,5.927
		c-0.733,0.439-1.469,0.899-2.206,1.397c-1.014,0.684-1.974,1.437-2.911,2.221c-10.25,7.243-15.998,18.888-21.256,30.496
		c-7.31,16.132-16.395,38.041-38.36,44.638c-1.742,0.296-3.564,0.53-5.494,0.676C70.961,158.091,61.947,153.847,55.795,145.371z
		 M131.787,114.961c3.942-10.812,7.99-21.944,15.561-30.167c1.157-1.047,2.362-2.015,3.64-2.877
		c1.048-0.707,2.083-1.327,3.113-1.904c2.57,2.378,4.432,5.221,5.521,8.448c1.824,5.738,0.479,10.247-2.012,15.16
		c-2.564,5.052-5.879,9.495-15.801,11.775c-3.075,0.411-5.765,0.33-8.026,0.035C133.139,115.264,132.462,115.113,131.787,114.961z"
		/>
	<g>
		<g>
			<path fill="#FFFFFF" d="M87.055,238.196c2.67-0.423,4.008-0.615,6.687-0.958c0.05,0.393,0.076,0.589,0.126,0.982
				c-2.203,0.283-3.304,0.438-5.502,0.774c0.299,1.951,0.448,2.926,0.746,4.878c1.918-0.294,2.878-0.43,4.8-0.682
				c0.051,0.387,0.076,0.58,0.127,0.967c-1.914,0.251-2.87,0.386-4.779,0.679c0.159,1.04,0.238,1.56,0.398,2.599
				c2.203-0.337,3.306-0.492,5.514-0.773c0.05,0.393,0.075,0.589,0.125,0.982c-2.643,0.336-3.963,0.525-6.597,0.942
				C88.041,244.43,87.713,242.351,87.055,238.196z"/>
			<path fill="#FFFFFF" d="M97.97,245.296c0.352-0.239,0.528-0.359,0.882-0.597c0.597,0.822,1.405,1.495,2.897,1.35
				c1.227-0.119,2.132-0.879,2.035-1.989c-0.092-1.063-0.815-1.547-2.216-2.003c-0.356-0.121-0.535-0.181-0.892-0.301
				c-1.604-0.524-2.53-1.15-2.692-2.61c-0.167-1.507,0.971-2.647,2.626-2.809c1.477-0.145,2.461,0.424,3.12,1.301
				c-0.356,0.254-0.533,0.381-0.886,0.636c-0.476-0.61-1.104-1.052-2.138-0.951c-1.082,0.106-1.681,0.777-1.587,1.67
				c0.097,0.923,0.654,1.282,1.916,1.702c0.359,0.12,0.538,0.181,0.896,0.303c1.869,0.602,2.853,1.396,2.982,2.969
				c0.141,1.726-1.151,2.884-3.038,3.066C99.865,247.226,98.658,246.339,97.97,245.296z"/>
			<path fill="#FFFFFF" d="M110.516,236.698c-1.354,0.074-2.03,0.116-3.383,0.21c-0.027-0.395-0.041-0.593-0.068-0.988
				c3.185-0.222,4.779-0.304,7.966-0.415c0.013,0.396,0.02,0.594,0.034,0.99c-1.354,0.047-2.03,0.075-3.383,0.142
				c0.186,3.809,0.281,5.713,0.469,9.519c-0.447,0.022-0.67,0.034-1.117,0.058C110.827,242.409,110.722,240.505,110.516,236.698z"/>
			<path fill="#FFFFFF" d="M116.223,245.249c-0.015-0.479,0.381-0.847,0.818-0.859c0.453-0.012,0.853,0.334,0.864,0.813
				c0.011,0.48-0.369,0.86-0.819,0.872C116.652,246.088,116.238,245.729,116.223,245.249z"/>
			<path fill="#FFFFFF" d="M120.792,245.791c1.715-1.849,2.591-2.765,4.379-4.579c0.993-0.996,1.602-1.881,1.62-2.949
				c0.019-1.144-0.712-1.979-2.025-1.99c-1.232-0.01-2.157,0.72-2.474,2.098c-0.444-0.092-0.666-0.137-1.11-0.226
				c0.357-1.642,1.573-2.909,3.592-2.893c1.986,0.016,3.228,1.271,3.19,3.034c-0.029,1.315-0.853,2.426-1.912,3.51
				c-0.969,0.977-1.448,1.468-2.396,2.455c-0.33,0.354-0.797,0.71-0.797,0.71s0.546-0.062,0.967-0.06
				c1.622,0.006,2.433,0.017,4.055,0.053c-0.009,0.396-0.013,0.594-0.022,0.99c-2.826-0.063-4.239-0.072-7.065-0.044
				C120.792,245.856,120.792,245.834,120.792,245.791z"/>
			<path fill="#FFFFFF" d="M131.182,240.779c0.116-3.185,2.476-5.303,5.402-5.13c2.926,0.173,5.021,2.557,4.761,5.733
				c-0.26,3.176-2.607,5.181-5.397,5.015C133.158,246.231,131.066,243.964,131.182,240.779z M140.139,241.286
				c0.193-2.529-1.202-4.491-3.615-4.634c-2.412-0.143-4.028,1.639-4.134,4.174c-0.106,2.534,1.296,4.429,3.617,4.567
				C138.328,245.531,139.946,243.816,140.139,241.286z"/>
			<path fill="#FFFFFF" d="M146.198,237.542c-0.717-0.073-1.075-0.108-1.792-0.176c0.037-0.394,0.056-0.591,0.093-0.986
				c1.194,0.112,1.79,0.172,2.983,0.301c-0.448,4.183-0.672,6.276-1.12,10.459c-0.451-0.048-0.677-0.072-1.129-0.118
				C145.618,243.23,145.812,241.333,146.198,237.542z"/>
			<path fill="#FFFFFF" d="M149.987,245.549c0.398-0.151,0.598-0.225,0.997-0.374c0.4,0.971,1.207,1.776,2.554,1.965
				c1.703,0.239,2.891-0.702,3.118-2.185c0.227-1.484-0.672-2.705-2.462-2.956c-0.634-0.089-1.045-0.035-1.344,0.035
				c-0.026-0.047-0.039-0.071-0.065-0.118c1.214-1.074,1.828-1.607,3.07-2.664c0.279-0.225,0.68-0.494,0.68-0.494
				s-0.494,0.005-0.912-0.056c-1.518-0.219-2.278-0.322-3.798-0.516c0.05-0.393,0.075-0.589,0.125-0.982
				c2.647,0.337,3.969,0.524,6.607,0.938c-0.007,0.043-0.01,0.064-0.017,0.107c-1.184,0.979-1.77,1.472-2.93,2.467
				c-0.372,0.321-0.725,0.521-0.725,0.521c2.041,0.369,3.211,2.017,2.909,3.926c-0.336,2.124-2.13,3.291-4.349,2.979
				C151.704,247.898,150.448,246.821,149.987,245.549z"/>
		</g>
	</g>
	<g>
		<g>
			<path fill="#E9CCD0" d="M0,219.909l16.721,16.35l-0.427,23.467c11.037-4.516,22.289-8.299,33.683-11.365l-14.606-40.594
				C23.414,211.126,11.603,215.155,0,219.909z"/>
		</g>
	</g>
	<g>
		<g>
			<polygon fill="#231F20" points="8.488,204.386 24.953,244.134 49.977,248.36 35.371,207.767 			"/>
		</g>
	</g>
	<g>
		<g>
			<path fill="#E9CCD0" d="M249.154,219.909l-16.722,16.35l0.425,23.467c-11.035-4.516-22.286-8.299-33.681-11.365l14.606-40.594
				C225.738,211.126,237.551,215.155,249.154,219.909z"/>
		</g>
	</g>
	<g>
		<g>
			<polygon fill="#231F20" points="240.468,204.386 224.004,244.134 199.176,248.36 213.782,207.767 			"/>
		</g>
	</g>
	<g>
		<g>
			<path fill="#E9CCD0" d="M224.082,244.177c-63.725-26.395-135.492-26.395-199.217-0.002c-5.488-13.248-10.996-26.5-16.484-39.752
				c74.266-30.76,157.923-30.732,232.19,0.031C235.083,217.702,229.572,230.927,224.082,244.177z"/>
		</g>
	</g>
	<g>
		<g>
			<path fill="#231F20" d="M48.261,201.638c0.579-0.148,0.868-0.221,1.446-0.367c4.572,5.957,6.78,8.973,11.037,15.074
				c0.43,0.602,1.011,1.744,1.011,1.744s0.04-1.279,0.173-2.008c1.255-7.332,1.97-11.002,3.565-18.336
				c0.544-0.107,0.814-0.16,1.357-0.266c-2.049,9.088-2.939,13.641-4.461,22.725c-0.147,0.033-0.221,0.051-0.368,0.082
				C56.765,212.716,54.009,208.981,48.261,201.638z"/>
			<path fill="#231F20" d="M75.204,196.007c0.547-0.088,0.818-0.131,1.364-0.215c1.313,8.336,1.969,12.508,3.282,20.842
				c-0.509,0.082-0.763,0.123-1.271,0.205C77.23,208.507,76.556,204.341,75.204,196.007z"/>
			<path fill="#231F20" d="M89.57,197.905c-0.49-0.475-1.189-1.268-1.189-1.268s0.214,0.939,0.287,1.557
				c0.8,6.781,1.2,10.172,2,16.951c-0.473,0.057-0.708,0.084-1.181,0.141c-1.037-8.475-1.557-12.713-2.594-21.191
				c0.161-0.018,0.241-0.027,0.402-0.049c6.667,6.246,9.84,9.465,15.853,16.051c0.449,0.494,1.076,1.32,1.076,1.32
				s-0.161-0.951-0.203-1.57c-0.471-6.811-0.705-10.217-1.176-17.025c0.51-0.037,0.764-0.057,1.273-0.088
				c0.553,8.521,0.831,12.781,1.385,21.309c-0.15,0.008-0.225,0.014-0.376,0.021C99.232,207.439,96.121,204.2,89.57,197.905z"/>
			<path fill="#231F20" d="M119.331,193.245c-2.894,0.041-4.342,0.08-7.235,0.193c-0.017-0.447-0.026-0.67-0.042-1.117
				c6.359-0.246,9.54-0.285,15.902-0.197c-0.007,0.445-0.008,0.666-0.014,1.115c-2.894-0.041-4.341-0.041-7.235-0.012
				c0.079,7.992,0.123,11.988,0.205,19.982c-0.513,0.008-0.771,0.012-1.285,0.02C119.507,205.233,119.446,201.237,119.331,193.245z"
				/>
			<path fill="#231F20" d="M140.814,192.321c0.162,0.008,0.242,0.014,0.404,0.023c3.215,8.74,4.7,13.133,7.401,21.941
				c-0.524-0.045-0.789-0.066-1.313-0.111c-0.514-1.688-0.774-2.531-1.308-4.217c-4.765-0.371-7.152-0.502-11.925-0.674
				c-0.718,1.613-1.069,2.422-1.768,4.041c-0.514-0.016-0.772-0.023-1.286-0.037C134.676,204.839,136.631,200.643,140.814,192.321z
				 M145.605,208.809c-1.584-4.951-2.417-7.422-4.161-12.348c-0.288-0.766-0.554-1.961-0.554-1.961s-0.4,1.156-0.772,1.885
				c-2.306,4.697-3.418,7.059-5.558,11.799C138.981,208.351,141.192,208.474,145.605,208.809z"/>
			<path fill="#231F20" d="M154.331,204.237c0.661-6.326,6.361-10.219,12.774-9.297c3.84,0.553,7.095,2.486,8.477,5.596
				c-0.456,0.209-0.683,0.314-1.138,0.525c-1.277-2.769-3.943-4.473-7.503-4.984c-5.825-0.838-10.652,2.816-11.252,8.307
				c-0.599,5.49,3.081,10.02,8.533,10.807c5.546,0.797,9.042-2.018,10.216-5.686c-3.514-0.619-5.277-0.906-8.803-1.418
				c0.065-0.455,0.099-0.68,0.165-1.135c4.119,0.598,6.175,0.934,10.276,1.68c-1.31,5.564-5.966,8.562-12.017,7.693
				C158.102,215.466,153.67,210.564,154.331,204.237z"/>
			<path fill="#231F20" d="M185.826,198.489c5.257,1.096,7.876,1.699,13.092,3.029c-0.11,0.434-0.165,0.649-0.275,1.082
				c-4.661-1.188-7-1.734-11.692-2.734c-0.943,4.42-1.414,6.631-2.356,11.051c4.048,0.861,6.069,1.33,10.092,2.338
				c-0.108,0.436-0.162,0.648-0.271,1.082c-4.008-1.004-6.02-1.471-10.054-2.33c-0.538,2.523-0.806,3.789-1.344,6.314
				c4.574,0.975,6.853,1.508,11.393,2.674c-0.111,0.434-0.165,0.648-0.276,1.08c-5.023-1.287-7.549-1.873-12.614-2.928
				C183.242,210.888,184.102,206.753,185.826,198.489z"/>
		</g>
	</g>
</g>
</svg>
