<?xml version="1.0" encoding="utf-8"?>
<!-- Generator: Adobe Illustrator 17.0.0, SVG Export Plug-In . SVG Version: 6.00 Build 0)  -->
<!DOCTYPE svg PUBLIC "-//W3C//DTD SVG 1.1//EN" "http://www.w3.org/Graphics/SVG/1.1/DTD/svg11.dtd">
<svg version="1.1" id="rxvintage_xA0_Image_1_" xmlns="http://www.w3.org/2000/svg" xmlns:xlink="http://www.w3.org/1999/xlink"
	 x="0px" y="0px" width="249.12px" height="370.32px" viewBox="0 0 249.12 370.32" enable-background="new 0 0 249.12 370.32"
	 xml:space="preserve">
<g>
	<path fill="none" d="M0.24,0.24c83.04,0,166.08,0,249.12,0c0,123.44,0,246.88,0,370.32c-83.04,0-166.08,0-249.12,0
		C0.24,247.12,0.24,123.68,0.24,0.24z M19.433,37.023c0,0.486,0,0.875,0,1.265c0,44.955,0.005,89.909-0.006,134.864
		c-0.001,5.426,0.599,10.778,1.981,16.018c0.83,3.145,1.9,6.227,2.856,9.319c66.291-22.405,132.38-22.617,198.599-0.754
		c0.097-0.207,0.212-0.415,0.293-0.634c2.72-7.373,4.326-14.975,4.331-22.845c0.033-45.354,0.021-90.709,0.024-136.063
		c0-0.379,0-0.758,0-1.17C158.093,37.023,88.868,37.023,19.433,37.023z M50.652,235.197c0.715,0.757,1.278,1.429,1.917,2.019
		c20.685,19.105,44.435,33.448,69.984,44.982c0.487,0.22,1.271,0.145,1.776-0.092c5.821-2.727,11.697-5.352,17.4-8.31
		c17.985-9.326,34.898-20.269,50.044-33.809c1.837-1.642,3.61-3.355,5.588-5.198C148.248,220.937,99.482,221.089,50.652,235.197z
		 M127.465,315.237c0.256-0.185,0.341-0.28,0.445-0.317c12.585-4.401,25.123-8.943,37.777-13.135
		c6.734-2.231,13.723-3.47,20.9-2.745c4.669,0.471,8.787,2.132,11.722,5.966c3.9,5.096,2.508,11.726-3.149,14.706
		c-5.718,3.012-11.444,2.5-16.936-0.627c-2.923-1.664-4.007-4.69-3.245-7.952c0.662-2.833,3.183-4.289,5.853-3.137
		c1.103,0.476,1.992,1.507,2.89,2.376c0.594,0.574,1.16,0.893,1.888,0.398c0.654-0.444,0.747-1.065,0.401-1.791
		c-1.145-2.397-4.259-4.107-7.294-3.979c-2.849,0.12-5.019,1.747-6.028,4.521c-1.536,4.22-0.157,8.769,3.461,11.418
		c6.058,4.436,15.966,4.469,22.011,0.041c4.137-3.031,5.611-7.168,4.698-12.124c-0.933-5.068-4.247-8.288-8.684-10.479
		c-4.412-2.179-9.153-2.393-13.946-2.098c-5.535,0.34-10.961,1.401-16.185,3.193c-13.177,4.519-26.296,9.203-39.427,13.853
		c-0.807,0.286-1.472,0.297-2.281,0.01c-12.901-4.584-25.769-9.27-38.743-13.638c-7.644-2.574-15.531-4.131-23.696-3.294
		c-4.594,0.471-8.688,2.11-12.015,5.378c-5.791,5.689-5.368,14.627,0.867,19.192c6.067,4.442,16.055,4.395,22.116-0.083
		c2.48-1.832,3.771-4.297,3.969-7.338c0.35-5.372-2.997-8.989-7.909-8.505c-2.441,0.241-4.36,1.457-5.741,3.502
		c-0.523,0.775-0.774,1.577,0.127,2.203c0.908,0.631,1.459,0.036,2.099-0.65c0.769-0.824,1.656-1.679,2.667-2.107
		c2.6-1.102,5.023,0.19,5.808,2.889c0.841,2.892-0.122,5.924-2.458,7.734c-5.119,3.968-14.119,4.019-19.255,0.087
		c-3.15-2.412-4.22-5.648-3.462-9.46c0.787-3.959,3.403-6.503,6.857-8.289c3.941-2.038,8.195-2.26,12.506-2.037
		c5.259,0.272,10.423,1.231,15.386,2.915c12.549,4.258,25.034,8.704,37.543,13.08c0.136,0.048,0.243,0.178,0.443,0.332
		c-4.08,1.554-8.077,3.05-12.048,4.612c-0.863,0.34-1.522,0.308-2.331-0.183c-4.018-2.437-8.275-4.34-12.874-5.393
		c-2.866-0.656-5.759-1.015-8.654-0.167c-2.835,0.83-4.358,2.732-4.504,5.527c-0.137,2.614,1.28,4.84,4.014,5.747
		c1.682,0.558,3.497,0.903,5.267,0.972c5.698,0.22,11.211-0.897,16.576-2.752c0.732-0.253,1.233-0.177,1.853,0.248
		c2.932,2.014,5.891,3.989,8.854,5.958c1.725,1.146,3.475,2.253,5.328,3.451c-2.232,1.404-4.343,2.766-6.501,4.048
		c-0.267,0.158-0.816-0.032-1.181-0.187c-1.87-0.796-3.665-1.816-5.592-2.416c-3.567-1.111-7.226-1.429-10.835-0.105
		c-2.726,1-4.148,3.179-3.92,5.79c0.195,2.233,1.896,3.9,4.648,4.494c2.427,0.524,4.848,0.346,7.259-0.152
		c3.325-0.687,6.369-2.044,9.194-3.934c3.03,2.076,5.311,4.798,7.441,7.655c0.173,0.233,0.057,0.804-0.098,1.137
		c-0.605,1.302-1.379,2.531-1.911,3.859c-1.515,3.786-2.531,7.676-1.812,11.807c0.515,2.958,2.476,4.851,5.134,5.044
		c3.189,0.232,5.485-1.125,6.255-4.023c0.412-1.552,0.553-3.245,0.45-4.851c-0.274-4.257-1.697-8.183-3.869-11.85
		c-0.178-0.301-0.259-0.899-0.084-1.135c2.127-2.858,4.412-5.574,7.194-7.48c2.362,1.066,4.518,2.22,6.796,3.026
		c3.475,1.229,7.074,1.739,10.711,0.66c2.119-0.628,3.605-1.964,3.822-4.274c0.225-2.398-0.815-4.279-2.966-5.284
		c-1.38-0.644-2.943-1.078-4.459-1.216c-4.613-0.419-8.843,0.918-12.825,3.185c-0.364,0.207-0.987,0.403-1.273,0.235
		c-2.165-1.273-4.276-2.638-6.431-3.991c4.92-3.287,9.76-6.532,14.624-9.74c0.259-0.171,0.762-0.131,1.091-0.015
		c4.245,1.499,8.618,2.413,13.097,2.761c3.038,0.236,6.085,0.246,8.996-0.884c2.712-1.052,4.135-3.129,4.011-5.771
		c-0.131-2.803-1.647-4.7-4.474-5.545c-2.481-0.742-4.992-0.557-7.482-0.083c-5.126,0.975-9.8,3.098-14.282,5.707
		c-0.427,0.249-1.096,0.438-1.517,0.284C135.938,318.49,131.769,316.877,127.465,315.237z M12.84,30.407c0.744,0,1.297,0,1.85,0
		c30.558,0,61.117,0.006,91.675-0.018c1.59-0.001,3.216-0.099,4.762-0.439c3.38-0.744,6.146-2.399,7.084-6.018
		c1.418-5.467-2.825-10.916-8.499-11.012c-3.528-0.059-6.602,2.506-7.176,5.989c-0.389,2.359,0.859,4.467,3.142,5.305
		c2.281,0.837,4.867,0.019,6.032-1.899c0.471-0.775,0.591-1.539-0.252-2.102c-0.787-0.525-1.44-0.203-1.932,0.532
		c-0.111,0.166-0.206,0.352-0.349,0.484c-0.838,0.776-1.796,0.805-2.783,0.363c-0.895-0.401-1.345-1.1-1.233-2.109
		c0.202-1.822,1.834-3.562,3.621-3.86c2.89-0.482,5.92,1.557,6.749,4.54c0.849,3.054-0.349,5.638-3.459,6.67
		c-1.781,0.591-3.751,0.849-5.636,0.852c-31.038,0.05-62.077,0.036-93.115,0.036c-3.169,0-3.168,0-3.168,3.208
		c0,47.117,0.003,94.235-0.003,141.352c-0.001,6.586,0.644,13.098,2.364,19.464c0.902,3.337,2.025,6.613,3.063,9.966
		c0.479-0.142,0.706-0.196,0.924-0.276c0.557-0.204,1.11-0.42,1.712-0.649c-0.16-0.445-0.288-0.818-0.428-1.186
		c-3.321-8.72-4.963-17.733-4.957-27.076c0.027-46.837,0.012-93.675,0.012-140.513C12.84,31.538,12.84,31.064,12.84,30.407z
		 M231.576,200.97c0.189-0.455,0.338-0.776,0.458-1.108c3.158-8.684,4.757-17.641,4.755-26.888
		c-0.008-38.875-0.003-77.75-0.003-116.625c0-8.719-0.007-17.438,0.006-26.157c0.003-2.246-0.188-2.473-2.434-2.473
		c-13.438-0.001-26.876,0-40.315,0c-17.518,0-35.035-0.001-52.553,0.001c-2.134,0-4.245-0.131-6.188-1.133
		c-1.979-1.02-3.112-2.593-3.03-4.893c0.113-3.159,2.324-5.615,5.445-6.071c2.159-0.316,4.079,0.794,4.885,2.822
		c0.553,1.393,0.299,2.444-0.739,3.05c-1.198,0.699-2.457,0.432-3.345-0.767c-0.531-0.717-1.155-1.037-1.935-0.503
		c-0.776,0.532-0.693,1.27-0.276,2.015c0.938,1.678,3.037,2.575,5.18,2.208c1.992-0.34,3.628-1.853,3.976-3.677
		c0.593-3.109-1.657-6.577-4.916-7.577c-3.888-1.194-8.589,1.168-10.218,5.133c-1.789,4.357-0.323,8.559,3.703,10.618
		c2.385,1.22,4.956,1.46,7.576,1.46c30.236,0,60.472,0,90.708,0c0.547,0,1.095,0,1.777,0c0,0.573,0,1.002,0,1.43
		c0,47.154-0.002,94.308,0.002,141.461c0.001,6.39-0.766,12.68-2.469,18.842c-0.73,2.642-1.582,5.251-2.399,7.942
		C229.974,200.365,230.712,200.644,231.576,200.97z M203.867,236.682c-0.242,0.258-0.32,0.305-0.345,0.372
		c-0.284,0.746-0.526,1.51-0.85,2.238c-0.188,0.422-0.431,0.872-0.772,1.167c-14.406,12.44-29.584,23.807-46.361,32.894
		c-7.724,4.184-15.572,8.139-23.366,12.192c-2.419,1.258-4.497,2.904-5.975,5.227c-1.203,1.89-1.775,3.937-1.236,6.17
		c1.431,5.921,8.727,8.638,13.704,5.121c2.976-2.103,3.885-6.38,1.997-9.401c-1.201-1.923-3.389-2.657-5.662-1.9
		c-2.222,0.74-3.641,2.741-3.484,4.895c0.064,0.881,0.456,1.48,1.393,1.452c0.865-0.026,1.265-0.581,1.262-1.432
		c0-0.08-0.007-0.16-0.001-0.24c0.093-1.239,0.94-2.093,2.232-2.255c1.148-0.144,1.91,0.367,2.313,1.614
		c0.534,1.653,0.249,3.184-0.904,4.478c-1.809,2.033-5.452,2.254-7.817,0.53c-2.615-1.906-3.255-4.669-1.675-7.361
		c1.147-1.955,2.837-3.348,4.816-4.384c2.406-1.259,4.832-2.481,7.272-3.673c21.066-10.29,40.737-22.732,58.61-37.952
		c0.404-0.344,0.818-0.677,1.502-1.242c-0.428,1.279-0.736,2.199-1.11,3.316c8.247-1.405,16.314-2.779,24.381-4.153
		c0.019-0.133,0.038-0.266,0.057-0.399C217.154,241.521,210.461,239.083,203.867,236.682z M25.531,243.959
		c0.03,0.118,0.061,0.236,0.091,0.354c0.27,0.068,0.537,0.154,0.811,0.2c6.815,1.147,13.633,2.281,20.446,3.442
		c1.25,0.213,2.369,0.449,3.502,1.385c11.267,9.311,23.114,17.827,35.937,24.881c8.607,4.735,17.414,9.106,26.057,13.778
		c1.709,0.924,3.258,2.317,4.555,3.782c1.486,1.677,1.961,3.769,0.71,5.887c-1.329,2.25-3.291,3.463-5.958,3.267
		c-3.493-0.257-5.636-3.053-4.682-6.033c0.427-1.335,1.162-1.872,2.353-1.718c1.293,0.166,2.179,1.014,2.211,2.264
		c0.025,0.984,0.314,1.714,1.402,1.654c1.089-0.061,1.286-0.895,1.274-1.818c-0.025-2.101-1.575-4.018-3.736-4.605
		c-2.286-0.62-4.37,0.163-5.493,2.099c-0.927,1.598-1.11,3.329-0.701,5.103c0.845,3.671,4.177,5.876,8.471,5.735
		c4.954-0.163,10.958-6.169,6.825-12.764c-1.349-2.153-3.213-3.77-5.423-4.971c-1.894-1.03-3.828-1.99-5.767-2.934
		c-21.001-10.221-40.788-22.341-58.637-37.487c-0.545-0.462-1.004-1.134-1.267-1.801c-0.89-2.26-1.673-4.563-2.593-7.113
		C39.069,239.035,32.3,241.497,25.531,243.959z M176.117,200.569c-1.154-1.232-1.985-2.438-3.102-3.25
		c-3.064-2.228-6.552-2.893-10.247-2.072c-4.562,1.014-7.772,4.552-8.217,8.896c-0.515,5.022,1.851,9.287,6.293,11.342
		c4.455,2.061,9.868,1.335,12.847-1.753c1.32-1.369,2.203-2.975,2.577-5.018c-3.461-0.567-6.794-1.113-10.217-1.673
		c-0.078,0.459-0.134,0.789-0.205,1.207c1.512,0.229,2.93,0.43,4.341,0.663c1.435,0.237,2.865,0.507,4.306,0.764
		c-0.919,3.577-4.477,5.923-8.55,5.771c-5.092-0.19-9.065-3.337-9.895-7.837c-0.848-4.599,1.357-8.854,5.428-10.673
		c3.515-1.571,10.292-1.076,13.247,4.223C175.033,201.028,175.35,200.893,176.117,200.569z M103.05,192.965
		c0.418,6.101,0.828,12.07,1.253,18.268c-5.488-6.096-11.005-11.815-16.913-17.136c-0.097,0.063-0.193,0.125-0.29,0.188
		c0.862,7.031,1.725,14.062,2.599,21.184c0.517-0.116,0.844-0.19,1.211-0.272c-0.706-6.005-1.402-11.922-2.098-17.839
		c0.097-0.057,0.194-0.115,0.292-0.172c5.473,5.656,10.947,11.312,16.66,17.216c-0.474-7.331-0.929-14.362-1.387-21.436
		C103.938,192.965,103.59,192.965,103.05,192.965z M187.194,200.02c3.971,0.918,7.797,1.802,11.678,2.699
		c0.083-0.399,0.145-0.698,0.239-1.145c-4.373-1.006-8.699-2.002-13.084-3.011c-1.469,7.057-2.887,13.871-4.306,20.689
		c4.314,1.001,8.453,1.962,12.63,2.931c0.095-0.388,0.169-0.689,0.273-1.112c-3.765-0.891-7.479-1.771-11.338-2.685
		c0.446-2.091,0.882-4.131,1.329-6.227c3.41,0.784,6.665,1.533,9.968,2.292c0.123-0.364,0.221-0.656,0.367-1.088
		c-3.382-0.795-6.699-1.575-10.093-2.373C185.633,207.351,186.387,203.81,187.194,200.02z M148.808,214.268
		c-2.248-7.406-4.642-14.684-7.412-21.831c-0.158-0.02-0.315-0.041-0.473-0.061c-3.251,6.946-6.501,13.892-9.76,20.854
		c1.024,0.434,1.501,0.185,1.791-0.625c0.282-0.788,0.7-1.527,0.979-2.316c0.225-0.636,0.585-0.833,1.249-0.793
		c2.515,0.149,5.042,0.434,7.546,0.31c2.737-0.135,4.233,0.857,4.496,3.618C147.308,214.299,147.857,214.536,148.808,214.268z
		 M62.482,220.572c1.525-7.777,2.995-15.272,4.468-22.784c-0.888-0.184-1.293,0.122-1.457,0.974
		c-0.695,3.605-1.463,7.196-2.159,10.801c-0.519,2.685-0.968,5.383-1.436,8.004c-3.757-5.101-7.534-10.196-11.265-15.324
		c-0.596-0.819-1.152-0.954-1.973-0.404C53.245,208.052,57.797,214.222,62.482,220.572z M119.72,193.588c0,6.597,0,13.163,0,19.735
		c0.627,0,0.974,0,1.354,0c0-6.627,0-13.198,0-19.905c2.353,0,4.688,0,7.063,0c0-0.409,0.009-0.681-0.007-0.952
		c-0.003-0.058-0.096-0.111-0.045-0.056c-5.321,0-10.535,0-15.687,0c-0.282,1.025,0.067,1.219,0.869,1.197
		C115.295,193.551,117.326,193.588,119.72,193.588z M80.106,216.764c-1.111-7.046-2.192-13.897-3.284-20.825
		c-0.543,0.086-0.946,0.15-1.412,0.224c1.136,7.009,2.246,13.862,3.374,20.827C79.23,216.914,79.6,216.85,80.106,216.764z"/>
	<path d="M19.433,37.023c69.435,0,138.66,0,208.078,0c0,0.412,0,0.791,0,1.17c-0.003,45.354,0.009,90.709-0.024,136.063
		c-0.006,7.87-1.611,15.472-4.331,22.845c-0.081,0.22-0.196,0.427-0.293,0.634c-66.219-21.864-132.308-21.651-198.599,0.754
		c-0.957-3.093-2.027-6.174-2.856-9.319c-1.382-5.24-1.982-10.592-1.981-16.018c0.01-44.955,0.006-89.909,0.006-134.864
		C19.433,37.898,19.433,37.509,19.433,37.023z M141.893,118.871c4.499-0.767,8.827-1.688,12.841-3.683
		c9.236-4.591,13.113-13.352,10.126-23.216c-1.485-4.904-3.97-9.312-7.452-13.214c0.109-0.078,0.197-0.167,0.304-0.212
		c4.714-1.996,9.546-2.855,14.62-1.572c3.937,0.996,7.25,3.076,10.248,5.742c0.876,0.779,1.806,0.793,2.448,0.12
		c0.708-0.742,0.61-1.649-0.326-2.502c-3.082-2.809-6.539-4.987-10.564-6.182c-6.425-1.908-12.568-0.889-18.534,1.839
		c-0.577,0.264-0.995,0.359-1.623-0.056c-10.495-6.93-21.913-8.734-34.035-5.694c-7.669,1.923-14.101,6.116-19.549,11.809
		c-0.553,0.578-1.003,0.683-1.751,0.504c-1.59-0.381-3.199-0.748-4.821-0.915c-10.612-1.094-20.319,1.534-29.101,7.471
		c-17.891,12.096-23.983,35.2-14.062,53.761c6.22,11.637,15.875,18.14,29.348,17.833c8.705-0.198,16.889-2.467,24.491-6.998
		c6.757-4.027,12.47-9.023,16.922-15.491c3.909-5.68,6.458-12.01,8.883-18.404c0.191-0.504,0.39-1.004,0.707-1.819
		c2.607,0.932,5.142,1.658,7.518,2.734c3.01,1.363,4.529,3.892,4.812,7.197c0.265,3.095-0.46,5.949-1.923,8.641
		c-0.896,1.65-1.937,3.227-2.746,4.916c-1.083,2.26-2.238,4.529-2.943,6.918c-1.165,3.944-0.275,7.553,2.799,10.41
		c3.065,2.849,6.634,3.47,10.569,2.056c4.315-1.55,7.83-4.259,10.947-7.542c0.612-0.645,1.185-1.328,1.776-1.994
		c0.076,0.368,0.003,0.631-0.065,0.896c-0.362,1.404-0.67,2.793,0.009,4.21c1.391,2.903,4.044,4.291,7.352,3.513
		c1.806-0.425,3.613-1.081,5.25-1.951c6.964-3.702,12.673-8.878,17.342-15.217c0.118-0.16,0.235-0.325,0.325-0.502
		c0.403-0.785,0.276-1.504-0.416-2.03c-0.743-0.565-1.501-0.456-2.153,0.206c-0.223,0.226-0.395,0.501-0.586,0.757
		c-4.126,5.514-9.136,10.035-15.105,13.488c-1.503,0.87-3.094,1.25-4.825,1.097c-2.17-0.191-3.245-1.455-2.968-3.629
		c0.12-0.946,0.337-1.89,0.611-2.804c2.068-6.89,6.756-11.338,13.243-14.062c0.988-0.415,2.098-0.776,3.038,0.136
		c0.977,0.947,0.07,1.744-0.303,2.572c-0.049,0.109-0.1,0.22-0.129,0.335c-0.338,1.319,0.431,2.223,1.785,2.102
		c1.333-0.119,2.283-1.14,2.479-2.665c0.438-3.411-2.053-6.218-5.47-6.007c-1.128,0.07-2.288,0.406-3.336,0.85
		c-3.543,1.502-6.6,3.725-9.211,6.556c-0.244,0.265-0.494,0.525-0.927,0.985c0-0.966,0.04-1.608-0.006-2.244
		c-0.315-4.345-3.584-7.223-7.417-6.307c-4.588,1.097-7.904,4.043-10.444,7.907c-0.615,0.935-0.329,1.926,0.545,2.356
		c0.972,0.478,1.694,0.106,2.214-0.769c1.325-2.228,3.251-3.83,5.437-5.133c1.172-0.699,2.478-1.107,3.727-0.253
		c1.264,0.865,1.589,2.251,1.235,3.635c-0.473,1.844-1.011,3.71-1.828,5.42c-2.501,5.233-5.951,9.683-11.326,12.251
		c-1.413,0.675-3.005,1.154-4.558,1.314c-2.41,0.248-4.004-1.191-3.916-3.604c0.066-1.794,0.427-3.674,1.114-5.325
		c1.023-2.458,2.402-4.774,3.715-7.102c2.19-3.883,2.863-7.996,2.146-12.379C147.668,125.46,145.284,121.972,141.893,118.871z"/>
	<path d="M50.652,235.197c48.831-14.107,97.597-14.26,146.709-0.406c-1.978,1.843-3.751,3.556-5.588,5.198
		c-15.146,13.54-32.059,24.482-50.044,33.809c-5.703,2.958-11.579,5.583-17.4,8.31c-0.505,0.237-1.289,0.312-1.776,0.092
		c-25.549-11.535-49.299-25.878-69.984-44.982C51.93,236.626,51.366,235.953,50.652,235.197z M136.436,246.516
		c2.942,0.024,5.124-2.276,5.158-5.436c0.033-3.049-2.149-5.324-5.11-5.327c-2.911-0.003-5.064,2.272-5.082,5.372
		C131.384,244.239,133.487,246.491,136.436,246.516z M89.497,244.988c1.652-0.253,3.181-0.488,4.711-0.722
		c0.012-0.245,0.025-0.49,0.037-0.736c-1.575-0.38-3.25,0.468-4.91,0.326c-0.239-1.582-0.469-3.105-0.714-4.732
		c1.604-0.22,3.1-0.428,4.597-0.629c0.63-0.085,1.137-0.236,0.616-1.133c-2.126,0.309-4.281,0.622-6.558,0.952
		c0.555,3.507,1.088,6.881,1.639,10.365c2.099-0.282,4.11-0.53,6.11-0.853c0.21-0.034,0.349-0.511,0.52-0.782
		c-0.092-0.077-0.183-0.155-0.275-0.232c-1.765,0.226-3.53,0.452-5.359,0.687C89.769,246.634,89.647,245.897,89.497,244.988z
		 M150.289,245.732c0.811,1.786,2.6,2.804,4.47,2.582c1.798-0.213,2.944-1.277,3.24-3.01c0.305-1.785-0.408-2.877-2.654-4.021
		c1.107-0.95,2.201-1.891,3.516-3.02c-2.4-0.342-4.479-0.638-6.538-0.931c-0.406,0.72-0.199,1.017,0.5,1.103
		c1.167,0.143,2.33,0.32,3.679,0.509c-1.221,1.091-2.289,2.046-3.5,3.128c0.747,0.05,1.231,0.032,1.694,0.121
		c1.904,0.364,2.765,2.186,1.835,3.831c-0.957,1.691-3.571,1.711-4.883-0.018C151.246,245.476,150.942,245.191,150.289,245.732z
		 M122.45,238.497c0.149-0.31,0.242-0.528,0.355-0.734c0.687-1.244,2.11-1.718,3.256-1.089c0.97,0.532,1.26,1.863,0.553,3.064
		c-0.399,0.678-0.954,1.276-1.496,1.857c-1.32,1.415-2.672,2.8-4.252,4.448c2.376,0,4.399,0.021,6.42-0.024
		c0.277-0.006,0.547-0.343,0.821-0.526c-0.269-0.148-0.533-0.415-0.807-0.425c-1.258-0.046-2.519-0.02-3.763-0.02
		c-0.013-0.179-0.032-0.229-0.016-0.246c0.94-0.979,1.933-1.914,2.811-2.947c0.637-0.75,1.275-1.566,1.642-2.463
		c0.684-1.671-0.164-3.312-1.804-3.84c-2.157-0.694-4.082,0.378-4.707,2.687C121.756,238.316,122.052,238.393,122.45,238.497z
		 M103.772,238.113c0.026-0.141,0.053-0.282,0.079-0.424c-1.128-1.237-2.522-1.601-3.988-0.999
		c-1.052,0.432-1.706,1.203-1.672,2.384c0.047,1.646,1.216,2.299,2.562,2.783c0.786,0.282,1.655,0.475,2.304,0.955
		c0.462,0.342,0.888,1.124,0.834,1.66c-0.053,0.533-0.626,1.211-1.146,1.461c-1.128,0.541-2.295,0.338-3.186-0.603
		c-0.583-0.616-0.889-0.334-1.253,0.13c0.907,1.786,3.725,2.262,5.569,1.136c1.655-1.01,1.748-3.414,0.152-4.564
		c-0.571-0.411-1.274-0.644-1.929-0.93c-0.656-0.287-1.419-0.421-1.962-0.844c-0.4-0.311-0.767-1.018-0.696-1.479
		c0.069-0.452,0.663-1.07,1.114-1.156c0.633-0.121,1.347,0.185,2.027,0.303C102.976,237.994,103.374,238.051,103.772,238.113z
		 M107.287,236.006c0.033,0.392,0.035,0.749,0.068,0.752c1.099,0.097,2.201,0.161,3.353,0.233c0.044,0.472,0.099,0.905,0.121,1.34
		c0.121,2.35,0.245,4.701,0.343,7.052c0.032,0.761,0.273,1.134,1.189,0.747c-0.138-3.065-0.277-6.151-0.421-9.339
		c1.175-0.07,2.227-0.132,3.279-0.195c0.054-0.128,0.108-0.257,0.162-0.385c-0.268-0.181-0.542-0.524-0.805-0.516
		C112.189,235.76,109.803,235.889,107.287,236.006z M146.372,237.904c-0.295,2.985-0.603,6.089-0.921,9.3
		c0.489-0.029,0.816-0.048,1.155-0.067c0.368-3.471,0.724-6.83,1.095-10.326c-1.056-0.1-1.979-0.187-2.921-0.276
		C144.459,238.167,145.894,237.262,146.372,237.904z M117.355,244.165c-0.433,0.555-0.877,0.877-0.852,1.158
		c0.027,0.313,0.481,0.588,0.748,0.88c0.282-0.269,0.737-0.507,0.795-0.818C118.098,245.108,117.708,244.75,117.355,244.165z"/>
	<path d="M127.465,315.237c4.305,1.639,8.474,3.252,12.671,4.787c0.421,0.154,1.09-0.035,1.517-0.284
		c4.482-2.609,9.155-4.732,14.282-5.707c2.491-0.474,5.001-0.658,7.482,0.083c2.827,0.845,4.342,2.741,4.474,5.545
		c0.124,2.642-1.3,4.719-4.011,5.771c-2.911,1.129-5.958,1.12-8.996,0.884c-4.479-0.348-8.852-1.262-13.097-2.761
		c-0.328-0.116-0.831-0.156-1.091,0.015c-4.865,3.208-9.705,6.453-14.624,9.74c2.155,1.353,4.266,2.718,6.431,3.991
		c0.286,0.168,0.909-0.028,1.273-0.235c3.981-2.267,8.212-3.603,12.825-3.185c1.516,0.138,3.079,0.571,4.459,1.216
		c2.151,1.004,3.191,2.886,2.966,5.284c-0.217,2.311-1.703,3.646-3.822,4.274c-3.637,1.078-7.236,0.569-10.711-0.66
		c-2.279-0.806-4.435-1.96-6.796-3.026c-2.782,1.906-5.067,4.622-7.194,7.48c-0.175,0.236-0.095,0.834,0.084,1.135
		c2.172,3.667,3.595,7.593,3.869,11.85c0.103,1.606-0.038,3.299-0.45,4.851c-0.77,2.898-3.066,4.255-6.255,4.023
		c-2.658-0.193-4.619-2.086-5.134-5.044c-0.719-4.131,0.297-8.021,1.812-11.807c0.531-1.328,1.306-2.558,1.911-3.859
		c0.155-0.333,0.271-0.904,0.098-1.137c-2.13-2.856-4.41-5.578-7.441-7.655c-2.825,1.89-5.869,3.247-9.194,3.934
		c-2.411,0.498-4.832,0.676-7.259,0.152c-2.752-0.595-4.453-2.261-4.648-4.494c-0.228-2.61,1.194-4.79,3.92-5.79
		c3.609-1.324,7.267-1.006,10.835,0.105c1.927,0.6,3.722,1.62,5.592,2.416c0.365,0.155,0.914,0.346,1.181,0.187
		c2.158-1.282,4.27-2.644,6.501-4.048c-1.853-1.198-3.603-2.306-5.328-3.451c-2.963-1.969-5.922-3.944-8.854-5.958
		c-0.62-0.426-1.121-0.501-1.853-0.248c-5.366,1.854-10.879,2.972-16.576,2.752c-1.77-0.068-3.585-0.414-5.267-0.972
		c-2.734-0.907-4.151-3.133-4.014-5.747c0.146-2.795,1.669-4.696,4.504-5.527c2.894-0.848,5.788-0.489,8.654,0.167
		c4.599,1.053,8.856,2.956,12.874,5.393c0.809,0.491,1.468,0.522,2.331,0.183c3.971-1.562,7.968-3.057,12.048-4.612
		c-0.201-0.153-0.307-0.284-0.443-0.332c-12.509-4.377-24.994-8.822-37.543-13.08c-4.963-1.684-10.127-2.643-15.386-2.915
		c-4.311-0.223-8.566-0.001-12.506,2.037c-3.453,1.786-6.07,4.331-6.857,8.289c-0.758,3.812,0.312,7.048,3.462,9.46
		c5.136,3.931,14.136,3.88,19.255-0.087c2.335-1.81,3.299-4.842,2.458-7.734c-0.785-2.699-3.208-3.991-5.808-2.889
		c-1.011,0.429-1.898,1.284-2.667,2.107c-0.64,0.685-1.191,1.281-2.099,0.65c-0.901-0.626-0.65-1.428-0.127-2.203
		c1.381-2.045,3.3-3.261,5.741-3.502c4.912-0.485,8.259,3.133,7.909,8.505c-0.198,3.041-1.489,5.506-3.969,7.338
		c-6.061,4.478-16.049,4.524-22.116,0.083c-6.235-4.565-6.658-13.503-0.867-19.192c3.327-3.269,7.421-4.907,12.015-5.378
		c8.166-0.837,16.053,0.721,23.696,3.294c12.974,4.368,25.842,9.054,38.743,13.638c0.809,0.288,1.474,0.276,2.281-0.01
		c13.131-4.65,26.251-9.335,39.427-13.853c5.224-1.791,10.65-2.852,16.185-3.193c4.793-0.295,9.534-0.08,13.946,2.098
		c4.437,2.191,7.751,5.411,8.684,10.479c0.913,4.957-0.561,9.094-4.698,12.124c-6.045,4.428-15.954,4.395-22.011-0.041
		c-3.618-2.649-4.996-7.198-3.461-11.418c1.009-2.773,3.179-4.401,6.028-4.521c3.035-0.128,6.15,1.582,7.294,3.979
		c0.347,0.726,0.253,1.347-0.401,1.791c-0.729,0.495-1.294,0.177-1.888-0.398c-0.899-0.869-1.788-1.9-2.89-2.376
		c-2.67-1.151-5.191,0.305-5.853,3.137c-0.762,3.261,0.322,6.288,3.245,7.952c5.492,3.126,11.218,3.639,16.936,0.627
		c5.657-2.98,7.049-9.61,3.149-14.706c-2.935-3.835-7.053-5.495-11.722-5.966c-7.177-0.725-14.165,0.514-20.9,2.745
		c-12.654,4.192-25.192,8.734-37.777,13.135C127.805,314.958,127.721,315.052,127.465,315.237z M108.834,322.137
		c3.836,2.525,7.428,4.9,11.033,7.256c1.168,0.763,2.376,2.066,3.551,2.051c1.231-0.016,2.466-1.288,3.663-2.067
		c3.607-2.349,7.196-4.726,10.962-7.204c-0.561-0.242-0.912-0.409-1.275-0.547c-3.8-1.446-7.626-2.828-11.392-4.36
		c-1.356-0.552-2.504-0.528-3.851,0.014C117.426,318.93,113.275,320.449,108.834,322.137z M144.108,321.451
		c0.379,0.156,0.577,0.28,0.79,0.319c3.563,0.66,7.107,1.535,10.701,1.878c2.289,0.219,4.695-0.157,6.971-0.633
		c2.017-0.422,2.746-1.691,2.617-3.447c-0.12-1.638-1.101-2.621-3.036-3.028c-2.491-0.523-4.925-0.111-7.342,0.48
		C151.073,317.936,147.588,319.454,144.108,321.451z M102.968,321.514c-4.002-2.248-7.853-3.923-12.038-4.761
		c-2.368-0.474-4.742-0.779-7.091,0.068c-1.337,0.482-2.049,1.464-2.12,2.897c-0.07,1.396,0.546,2.426,1.788,2.979
		c0.863,0.385,1.799,0.694,2.732,0.822C91.865,324.291,97.269,323.109,102.968,321.514z M123.51,351.235
		c-1.527,2.586-2.604,5.13-3.014,7.867c-0.286,1.908-0.378,3.896-0.184,5.81c0.204,2.015,1.591,2.906,3.536,2.748
		c1.593-0.13,2.594-1.109,2.868-3.022C127.403,359.848,125.713,355.612,123.51,351.235z M116.649,339.114
		c2.321,2.466,4.607,4.894,6.819,7.243c2.208-2.348,4.49-4.775,6.812-7.245c-2.073-1.301-4.224-2.665-6.399-3.99
		c-0.21-0.128-0.635-0.123-0.847,0.006C120.86,336.455,118.71,337.82,116.649,339.114z M135.533,339.184
		c1.956,1.416,5.118,2.635,7.871,3.076c2.107,0.338,4.209,0.498,6.271-0.244c0.92-0.331,1.632-0.905,1.709-1.951
		c0.076-1.033-0.325-1.919-1.241-2.422c-0.723-0.397-1.513-0.762-2.315-0.911C143.461,335.921,139.455,337.016,135.533,339.184z
		 M111.412,339.296c-1.999-1.369-4.703-2.357-7.731-2.724c-2.034-0.246-4.075-0.234-6.018,0.58c-1.477,0.619-2.212,1.63-2.123,2.868
		c0.08,1.107,0.87,1.921,2.475,2.222C102.865,343.154,107.197,341.675,111.412,339.296z"/>
	<path d="M12.84,30.407c0,0.657,0,1.13,0,1.604c0,46.838,0.014,93.675-0.012,140.513c-0.005,9.343,1.636,18.356,4.957,27.076
		c0.14,0.368,0.268,0.741,0.428,1.186c-0.602,0.229-1.154,0.445-1.712,0.649c-0.218,0.08-0.445,0.134-0.924,0.276
		c-1.038-3.353-2.162-6.63-3.063-9.966c-1.72-6.366-2.365-12.878-2.364-19.464c0.006-47.117,0.003-94.235,0.003-141.352
		c0-3.208-0.001-3.208,3.168-3.208c31.038,0,62.077,0.014,93.115-0.036c1.885-0.003,3.855-0.261,5.636-0.852
		c3.11-1.032,4.308-3.616,3.459-6.67c-0.829-2.983-3.859-5.021-6.749-4.54c-1.787,0.298-3.419,2.037-3.621,3.86
		c-0.112,1.009,0.338,1.709,1.233,2.109c0.987,0.442,1.946,0.413,2.783-0.363c0.143-0.133,0.238-0.319,0.349-0.484
		c0.492-0.735,1.145-1.057,1.932-0.532c0.843,0.563,0.723,1.327,0.252,2.102c-1.165,1.918-3.752,2.736-6.032,1.899
		c-2.283-0.838-3.531-2.945-3.142-5.305c0.574-3.483,3.648-6.049,7.176-5.989c5.674,0.095,9.917,5.545,8.499,11.012
		c-0.939,3.619-3.705,5.274-7.084,6.018c-1.546,0.34-3.172,0.437-4.762,0.439c-30.558,0.024-61.117,0.018-91.675,0.018
		C14.137,30.407,13.584,30.407,12.84,30.407z"/>
	<path d="M231.576,200.97c-0.864-0.327-1.602-0.605-2.348-0.887c0.817-2.691,1.669-5.3,2.399-7.942
		c1.703-6.161,2.469-12.451,2.469-18.842c-0.004-47.154-0.002-94.308-0.002-141.461c0-0.428,0-0.857,0-1.43c-0.682,0-1.23,0-1.777,0
		c-30.236,0-60.472,0-90.708,0c-2.619,0-5.191-0.24-7.576-1.46c-4.026-2.059-5.492-6.261-3.703-10.618
		c1.628-3.965,6.33-6.327,10.218-5.133c3.258,1,5.508,4.468,4.916,7.577c-0.348,1.824-1.983,3.337-3.976,3.677
		c-2.143,0.366-4.242-0.53-5.18-2.208c-0.416-0.745-0.499-1.484,0.276-2.015c0.78-0.534,1.404-0.215,1.935,0.503
		c0.888,1.199,2.147,1.466,3.345,0.767c1.037-0.605,1.292-1.657,0.739-3.05c-0.806-2.028-2.727-3.138-4.885-2.822
		c-3.12,0.456-5.331,2.911-5.445,6.071c-0.083,2.3,1.051,3.873,3.03,4.893c1.943,1.001,4.054,1.133,6.188,1.133
		c17.518-0.002,35.035-0.001,52.553-0.001c13.438,0,26.876,0,40.315,0c2.246,0,2.437,0.227,2.434,2.473
		c-0.013,8.719-0.006,17.438-0.006,26.157c0,38.875-0.005,77.75,0.003,116.625c0.002,9.247-1.597,18.204-4.755,26.888
		C231.913,200.194,231.765,200.515,231.576,200.97z"/>
	<path d="M203.867,236.682c6.593,2.401,13.287,4.839,19.98,7.276c-0.019,0.133-0.038,0.266-0.057,0.399
		c-8.067,1.374-16.133,2.748-24.381,4.153c0.374-1.117,0.682-2.037,1.11-3.316c-0.684,0.565-1.098,0.897-1.502,1.242
		c-17.873,15.22-37.544,27.662-58.61,37.952c-2.44,1.192-4.866,2.414-7.272,3.673c-1.979,1.035-3.668,2.429-4.816,4.384
		c-1.58,2.692-0.94,5.455,1.675,7.361c2.366,1.724,6.008,1.503,7.817-0.53c1.152-1.294,1.438-2.825,0.904-4.478
		c-0.403-1.247-1.165-1.758-2.313-1.614c-1.292,0.162-2.138,1.016-2.232,2.255c-0.006,0.079,0,0.16,0.001,0.24
		c0.003,0.852-0.397,1.406-1.262,1.432c-0.937,0.028-1.329-0.572-1.393-1.452c-0.156-2.154,1.263-4.155,3.484-4.895
		c2.273-0.757,4.461-0.023,5.662,1.9c1.888,3.021,0.979,7.298-1.997,9.401c-4.978,3.517-12.273,0.8-13.704-5.121
		c-0.54-2.233,0.033-4.279,1.236-6.17c1.477-2.322,3.556-3.969,5.975-5.227c7.795-4.053,15.642-8.009,23.366-12.192
		c16.776-9.087,31.954-20.455,46.361-32.894c0.341-0.295,0.584-0.744,0.772-1.167c0.324-0.728,0.566-1.492,0.85-2.238
		C203.548,236.987,203.625,236.94,203.867,236.682z"/>
	<path d="M25.531,243.959c6.769-2.462,13.538-4.923,20.387-7.414c0.92,2.551,1.703,4.853,2.593,7.113
		c0.263,0.667,0.722,1.339,1.267,1.801c17.849,15.147,37.636,27.267,58.637,37.487c1.939,0.944,3.873,1.904,5.767,2.934
		c2.21,1.201,4.074,2.818,5.423,4.971c4.134,6.595-1.87,12.601-6.825,12.764c-4.293,0.141-7.626-2.064-8.471-5.735
		c-0.408-1.773-0.225-3.504,0.701-5.103c1.122-1.936,3.207-2.719,5.493-2.099c2.162,0.587,3.711,2.504,3.736,4.605
		c0.011,0.923-0.185,1.758-1.274,1.818c-1.088,0.061-1.377-0.67-1.402-1.654c-0.032-1.249-0.918-2.097-2.211-2.264
		c-1.191-0.153-1.926,0.384-2.353,1.718c-0.954,2.98,1.189,5.776,4.682,6.033c2.667,0.196,4.629-1.017,5.958-3.267
		c1.251-2.118,0.776-4.21-0.71-5.887c-1.298-1.465-2.847-2.858-4.555-3.782c-8.643-4.672-17.45-9.043-26.057-13.778
		c-12.822-7.054-24.669-15.57-35.937-24.881c-1.133-0.936-2.251-1.172-3.502-1.385c-6.813-1.161-13.631-2.295-20.446-3.442
		c-0.274-0.046-0.541-0.133-0.811-0.2C25.592,244.195,25.562,244.077,25.531,243.959z"/>
	<path d="M176.117,200.569c-0.767,0.324-1.084,0.458-1.395,0.59c-2.955-5.298-9.732-5.793-13.247-4.223
		c-4.07,1.819-6.276,6.074-5.428,10.673c0.83,4.5,4.803,7.647,9.895,7.837c4.073,0.152,7.631-2.194,8.55-5.771
		c-1.441-0.257-2.87-0.527-4.306-0.764c-1.412-0.233-2.829-0.433-4.341-0.663c0.071-0.418,0.127-0.748,0.205-1.207
		c3.423,0.56,6.756,1.106,10.217,1.673c-0.374,2.044-1.257,3.65-2.577,5.018c-2.979,3.087-8.391,3.814-12.847,1.753
		c-4.442-2.055-6.809-6.32-6.293-11.342c0.446-4.343,3.655-7.882,8.217-8.896c3.696-0.821,7.183-0.156,10.247,2.072
		C174.132,198.132,174.963,199.338,176.117,200.569z"/>
	<path d="M103.05,192.965c0.54,0,0.888,0,1.326,0c0.458,7.074,0.913,14.105,1.387,21.436c-5.713-5.904-11.187-11.56-16.66-17.216
		c-0.097,0.057-0.194,0.115-0.292,0.172c0.696,5.917,1.392,11.833,2.098,17.839c-0.367,0.082-0.694,0.156-1.211,0.272
		c-0.874-7.122-1.736-14.153-2.599-21.184c0.097-0.063,0.193-0.125,0.29-0.188c5.909,5.322,11.425,11.041,16.913,17.136
		C103.877,205.035,103.468,199.066,103.05,192.965z"/>
	<path d="M187.194,200.02c-0.807,3.79-1.561,7.331-2.336,10.97c3.394,0.798,6.711,1.578,10.093,2.373
		c-0.146,0.432-0.245,0.724-0.367,1.088c-3.302-0.759-6.558-1.508-9.968-2.292c-0.447,2.097-0.883,4.136-1.329,6.227
		c3.859,0.914,7.573,1.793,11.338,2.685c-0.104,0.423-0.178,0.724-0.273,1.112c-4.177-0.969-8.316-1.93-12.63-2.931
		c1.419-6.818,2.837-13.632,4.306-20.689c4.385,1.009,8.711,2.005,13.084,3.011c-0.093,0.447-0.155,0.746-0.239,1.145
		C194.991,201.822,191.165,200.938,187.194,200.02z"/>
	<path d="M148.808,214.268c-0.95,0.269-1.499,0.031-1.583-0.844c-0.263-2.761-1.759-3.752-4.496-3.618
		c-2.505,0.123-5.032-0.161-7.546-0.31c-0.665-0.039-1.024,0.158-1.249,0.793c-0.279,0.789-0.697,1.528-0.979,2.316
		c-0.29,0.81-0.767,1.059-1.791,0.625c3.258-6.962,6.509-13.908,9.76-20.854c0.158,0.02,0.315,0.041,0.473,0.061
		C144.166,199.584,146.559,206.861,148.808,214.268z M141.095,194.928c-2.171,4.602-4.208,8.92-6.289,13.333
		c3.736,0.207,7.264,0.402,11.003,0.609C144.221,204.175,142.706,199.693,141.095,194.928z"/>
	<path d="M62.482,220.572c-4.685-6.35-9.237-12.519-13.822-18.734c0.822-0.55,1.378-0.414,1.973,0.404
		c3.731,5.128,7.507,10.223,11.265,15.324c0.468-2.621,0.917-5.319,1.436-8.004c0.696-3.605,1.464-7.196,2.159-10.801
		c0.164-0.852,0.57-1.158,1.457-0.974C65.477,205.3,64.007,212.795,62.482,220.572z"/>
	<path d="M119.72,193.588c-2.394,0-4.425-0.037-6.453,0.018c-0.802,0.022-1.15-0.172-0.869-1.197c5.152,0,10.366,0,15.687,0
		c-0.051-0.055,0.041-0.002,0.045,0.056c0.016,0.271,0.007,0.544,0.007,0.952c-2.375,0-4.71,0-7.063,0c0,6.707,0,13.278,0,19.905
		c-0.38,0-0.727,0-1.354,0C119.72,206.751,119.72,200.185,119.72,193.588z"/>
	<path d="M80.106,216.764c-0.505,0.086-0.876,0.149-1.322,0.226c-1.128-6.965-2.239-13.817-3.374-20.827
		c0.466-0.074,0.869-0.138,1.412-0.224C77.914,202.867,78.995,209.719,80.106,216.764z"/>
	<path fill="none" d="M141.893,118.871c3.391,3.101,5.775,6.589,6.507,11.063c0.717,4.383,0.044,8.496-2.146,12.379
		c-1.313,2.328-2.692,4.644-3.715,7.102c-0.687,1.651-1.048,3.532-1.114,5.325c-0.088,2.413,1.506,3.852,3.916,3.604
		c1.552-0.16,3.145-0.639,4.558-1.314c5.375-2.568,8.825-7.018,11.326-12.251c0.817-1.71,1.355-3.576,1.828-5.42
		c0.355-1.383,0.03-2.77-1.235-3.635c-1.249-0.854-2.554-0.446-3.727,0.253c-2.186,1.303-4.112,2.905-5.437,5.133
		c-0.521,0.876-1.242,1.247-2.214,0.769c-0.874-0.43-1.16-1.42-0.545-2.356c2.54-3.864,5.856-6.81,10.444-7.907
		c3.833-0.916,7.102,1.962,7.417,6.307c0.046,0.635,0.006,1.277,0.006,2.244c0.433-0.46,0.683-0.72,0.927-0.985
		c2.611-2.831,5.668-5.054,9.211-6.556c1.048-0.444,2.208-0.78,3.336-0.85c3.416-0.211,5.908,2.596,5.47,6.007
		c-0.196,1.525-1.146,2.546-2.479,2.665c-1.353,0.121-2.122-0.783-1.785-2.102c0.029-0.115,0.08-0.226,0.129-0.335
		c0.373-0.828,1.28-1.625,0.303-2.572c-0.94-0.912-2.05-0.55-3.038-0.136c-6.487,2.724-11.175,7.173-13.243,14.062
		c-0.274,0.914-0.491,1.858-0.611,2.804c-0.277,2.174,0.798,3.437,2.968,3.629c1.73,0.153,3.321-0.228,4.825-1.097
		c5.969-3.453,10.979-7.974,15.105-13.488c0.191-0.256,0.364-0.532,0.586-0.757c0.652-0.662,1.41-0.771,2.153-0.206
		c0.692,0.526,0.82,1.245,0.416,2.03c-0.091,0.176-0.207,0.341-0.325,0.502c-4.669,6.339-10.378,11.515-17.342,15.217
		c-1.637,0.87-3.443,1.527-5.25,1.951c-3.308,0.778-5.961-0.61-7.352-3.513c-0.679-1.417-0.371-2.807-0.009-4.21
		c0.068-0.264,0.141-0.528,0.065-0.896c-0.591,0.666-1.163,1.349-1.776,1.994c-3.117,3.284-6.632,5.992-10.947,7.542
		c-3.935,1.413-7.504,0.793-10.569-2.056c-3.074-2.857-3.964-6.466-2.799-10.41c0.706-2.389,1.86-4.658,2.943-6.918
		c0.809-1.689,1.85-3.266,2.746-4.916c1.463-2.692,2.188-5.547,1.923-8.641c-0.283-3.306-1.801-5.834-4.812-7.197
		c-2.376-1.076-4.911-1.802-7.518-2.734c-0.317,0.815-0.516,1.316-0.707,1.819c-2.425,6.393-4.974,12.724-8.883,18.404
		c-4.452,6.468-10.165,11.464-16.922,15.491c-7.602,4.531-15.786,6.799-24.491,6.998c-13.472,0.307-23.128-6.196-29.348-17.833
		c-9.92-18.561-3.828-41.665,14.062-53.761c8.782-5.937,18.489-8.565,29.101-7.471c1.622,0.167,3.231,0.535,4.821,0.915
		c0.748,0.179,1.198,0.074,1.751-0.504c5.448-5.693,11.88-9.886,19.549-11.809c12.122-3.04,23.54-1.236,34.035,5.694
		c0.628,0.415,1.046,0.32,1.623,0.056c5.965-2.728,12.108-3.747,18.534-1.839c4.025,1.195,7.483,3.373,10.564,6.182
		c0.936,0.853,1.034,1.76,0.326,2.502c-0.642,0.673-1.573,0.659-2.448-0.12c-2.997-2.667-6.311-4.747-10.248-5.742
		c-5.074-1.283-9.905-0.424-14.62,1.572c-0.107,0.045-0.194,0.134-0.304,0.212c3.482,3.902,5.967,8.311,7.452,13.214
		c2.988,9.863-0.889,18.625-10.126,23.216C150.72,117.183,146.392,118.104,141.893,118.871z M97.253,85.675
		c-0.019-0.144-0.038-0.289-0.057-0.433c-2.697-0.232-5.401-0.721-8.09-0.654C76.393,84.905,65.872,89.965,57.803,99.8
		c-10.846,13.221-11.522,32.015-1.872,45.601c8.378,11.795,22.348,14.778,34.641,10.072c7.142-2.734,12.897-7.452,17.785-13.273
		c5.367-6.391,9.283-13.662,12.84-21.153c3.339-7.033,6.539-14.139,10.096-21.061c3.767-7.33,8.743-13.757,15.563-18.587
		c1.529-1.083,3.026-2.211,4.666-3.412c-7.161-4.546-15.028-6.289-23.333-5.876c-9.906,0.492-18.146,4.811-25.194,11.802
		c11.594,5.453,16.263,14.964,16.476,27.288c0.802-1.03,1.492-2.074,2.047-3.187c0.581-1.166,1.261-1.626,2.198-1.271
		c0.971,0.368,1.279,1.275,0.796,2.504c-0.965,2.456-2.588,4.412-4.757,5.875c-0.739,0.498-1.039,1.075-1.2,1.909
		c-1.059,5.501-2.615,10.908-6.113,15.338c-8.401,10.64-19.527,15.566-33.042,14.159c-8.213-0.855-14.039-5.42-16.933-13.321
		c-0.599-1.637-0.926-3.384-1.26-5.103c-0.177-0.91,0.366-1.551,1.296-1.699c0.929-0.148,1.537,0.315,1.795,1.204
		c0.122,0.421,0.17,0.862,0.261,1.292c0.797,3.758,2.342,7.131,5.156,9.823c3.88,3.71,8.685,4.974,13.868,4.958
		c15.004-0.046,27.356-9.673,31.149-24.18c0.176-0.673,0.317-1.355,0.407-1.742c-2.062,0-4.074,0.234-6.015-0.038
		c-11.736-1.648-18.617-11.879-15.878-23.418C93.995,91.153,95.351,88.294,97.253,85.675z M132.025,115.131
		c0.887,0.2,1.619,0.484,2.361,0.509c2.152,0.074,4.343,0.303,6.454,0.007c6.376-0.894,11.907-3.432,15.42-9.154
		c1.225-1.996,2.286-4.131,3.131-6.315c2.662-6.875,0.898-14.295-4.482-19.322c-0.256-0.239-0.898-0.389-1.171-0.238
		c-2.88,1.598-5.533,3.487-7.644,6.076C139.271,95.067,135.751,105.06,132.025,115.131z M116.054,110.038
		c-0.049-0.998-0.082-1.997-0.154-2.994c-0.043-0.597-0.127-1.192-0.229-1.782c-1.466-8.528-5.941-14.766-13.947-18.317
		c-0.623-0.276-1.099-0.418-1.624,0.283c-3.492,4.657-4.931,9.831-3.821,15.573c1.873,9.69,12.398,13.234,18.235,11.419
		c0.95-0.296,1.54-0.662,1.443-1.786C115.89,111.644,116.015,110.839,116.054,110.038z"/>
	<path fill="none" d="M136.436,246.516c-2.949-0.024-5.052-2.276-5.033-5.391c0.018-3.1,2.171-5.376,5.082-5.372
		c2.961,0.003,5.143,2.278,5.11,5.327C141.561,244.24,139.378,246.54,136.436,246.516z M132.635,241.247
		c0.014,2.544,1.568,4.269,3.844,4.269c2.257,0,3.897-1.91,3.899-4.542c0.002-2.489-1.601-4.183-3.936-4.16
		C134.144,236.837,132.62,238.613,132.635,241.247z"/>
	<path fill="none" d="M89.497,244.988c0.15,0.909,0.271,1.646,0.414,2.51c1.829-0.234,3.594-0.461,5.359-0.687
		c0.092,0.077,0.183,0.155,0.275,0.232c-0.172,0.271-0.31,0.748-0.52,0.782c-2,0.323-4.011,0.571-6.11,0.853
		c-0.551-3.484-1.085-6.858-1.639-10.365c2.277-0.331,4.432-0.643,6.558-0.952c0.52,0.897,0.013,1.048-0.616,1.133
		c-1.497,0.201-2.993,0.409-4.597,0.629c0.246,1.628,0.476,3.151,0.714,4.732c1.66,0.142,3.335-0.706,4.91-0.326
		c-0.012,0.245-0.025,0.49-0.037,0.736C92.679,244.5,91.149,244.735,89.497,244.988z"/>
	<path fill="none" d="M150.289,245.732c0.653-0.541,0.957-0.256,1.361,0.276c1.311,1.729,3.926,1.709,4.883,0.018
		c0.931-1.645,0.069-3.467-1.835-3.831c-0.463-0.089-0.947-0.071-1.694-0.121c1.211-1.082,2.279-2.037,3.5-3.128
		c-1.35-0.189-2.512-0.366-3.679-0.509c-0.699-0.086-0.906-0.382-0.5-1.103c2.06,0.293,4.138,0.589,6.538,0.931
		c-1.315,1.129-2.41,2.069-3.516,3.02c2.246,1.144,2.959,2.235,2.654,4.021c-0.296,1.732-1.442,2.797-3.24,3.01
		C152.889,248.536,151.1,247.518,150.289,245.732z"/>
	<path fill="none" d="M122.45,238.497c-0.398-0.104-0.693-0.181-0.987-0.258c0.626-2.309,2.55-3.381,4.707-2.687
		c1.64,0.528,2.488,2.169,1.804,3.84c-0.367,0.897-1.005,1.713-1.642,2.463c-0.878,1.033-1.87,1.967-2.811,2.947
		c-0.016,0.017,0.003,0.067,0.016,0.246c1.244,0,2.505-0.026,3.763,0.02c0.274,0.01,0.538,0.277,0.807,0.425
		c-0.273,0.184-0.543,0.52-0.821,0.526c-2.021,0.045-4.044,0.024-6.42,0.024c1.58-1.648,2.933-3.032,4.252-4.448
		c0.542-0.581,1.097-1.179,1.496-1.857c0.707-1.201,0.417-2.532-0.553-3.064c-1.146-0.629-2.569-0.155-3.256,1.089
		C122.692,237.969,122.599,238.187,122.45,238.497z"/>
	<path fill="none" d="M103.772,238.113c-0.398-0.062-0.796-0.119-1.192-0.187c-0.68-0.118-1.394-0.424-2.027-0.303
		c-0.451,0.086-1.045,0.705-1.114,1.156c-0.071,0.461,0.296,1.168,0.696,1.479c0.543,0.423,1.306,0.557,1.962,0.844
		c0.655,0.286,1.358,0.519,1.929,0.93c1.596,1.149,1.503,3.554-0.152,4.564c-1.844,1.125-4.662,0.65-5.569-1.136
		c0.363-0.464,0.669-0.746,1.253-0.13c0.891,0.941,2.058,1.144,3.186,0.603c0.52-0.25,1.093-0.928,1.146-1.461
		c0.053-0.536-0.372-1.318-0.834-1.66c-0.648-0.48-1.517-0.673-2.304-0.955c-1.346-0.483-2.515-1.137-2.562-2.783
		c-0.034-1.181,0.62-1.952,1.672-2.384c1.466-0.602,2.86-0.237,3.988,0.999C103.824,237.83,103.798,237.972,103.772,238.113z"/>
	<path fill="none" d="M107.287,236.006c2.516-0.117,4.903-0.246,7.29-0.313c0.263-0.007,0.536,0.336,0.805,0.516
		c-0.054,0.128-0.108,0.257-0.162,0.385c-1.052,0.063-2.105,0.125-3.279,0.195c0.144,3.188,0.283,6.274,0.421,9.339
		c-0.916,0.387-1.157,0.015-1.189-0.747c-0.099-2.351-0.222-4.702-0.343-7.052c-0.022-0.435-0.078-0.868-0.121-1.34
		c-1.152-0.072-2.254-0.135-3.353-0.233C107.322,236.755,107.32,236.397,107.287,236.006z"/>
	<path fill="none" d="M146.372,237.904c-0.478-0.642-1.913,0.263-1.592-1.369c0.942,0.089,1.865,0.176,2.921,0.276
		c-0.371,3.496-0.727,6.855-1.095,10.326c-0.339,0.02-0.666,0.039-1.155,0.067C145.769,243.993,146.077,240.889,146.372,237.904z"/>
	<path fill="none" d="M117.355,244.165c0.354,0.585,0.743,0.943,0.692,1.22c-0.058,0.311-0.513,0.548-0.795,0.818
		c-0.268-0.292-0.721-0.567-0.748-0.88C116.478,245.042,116.921,244.72,117.355,244.165z"/>
	<path fill="none" d="M108.834,322.137c4.441-1.688,8.592-3.208,12.691-4.857c1.347-0.542,2.495-0.565,3.851-0.014
		c3.765,1.531,7.591,2.914,11.392,4.36c0.362,0.138,0.714,0.305,1.275,0.547c-3.766,2.478-7.355,4.854-10.962,7.204
		c-1.197,0.779-2.432,2.051-3.663,2.067c-1.176,0.015-2.384-1.288-3.551-2.051C116.262,327.037,112.67,324.662,108.834,322.137z"/>
	<path fill="none" d="M144.108,321.451c3.48-1.997,6.965-3.515,10.702-4.43c2.417-0.592,4.851-1.004,7.342-0.48
		c1.934,0.406,2.915,1.389,3.036,3.028c0.129,1.756-0.6,3.025-2.617,3.447c-2.276,0.477-4.682,0.852-6.971,0.633
		c-3.594-0.343-7.138-1.219-10.701-1.878C144.685,321.731,144.487,321.608,144.108,321.451z"/>
	<path fill="none" d="M102.968,321.514c-5.699,1.594-11.103,2.777-16.73,2.006c-0.933-0.128-1.868-0.437-2.732-0.822
		c-1.242-0.554-1.858-1.583-1.788-2.979c0.071-1.434,0.783-2.415,2.12-2.897c2.349-0.848,4.723-0.542,7.091-0.068
		C95.115,317.591,98.966,319.266,102.968,321.514z"/>
	<path fill="none" d="M123.51,351.235c2.204,4.377,3.894,8.613,3.207,13.402c-0.274,1.913-1.275,2.892-2.868,3.022
		c-1.945,0.159-3.332-0.733-3.536-2.748c-0.194-1.914-0.102-3.902,0.184-5.81C120.906,356.365,121.982,353.821,123.51,351.235z"/>
	<path fill="none" d="M116.649,339.114c2.061-1.294,4.211-2.659,6.385-3.986c0.212-0.129,0.637-0.134,0.847-0.006
		c2.175,1.325,4.326,2.689,6.399,3.99c-2.322,2.47-4.604,4.897-6.812,7.245C121.256,344.008,118.971,341.581,116.649,339.114z"/>
	<path fill="none" d="M135.533,339.184c3.922-2.169,7.928-3.263,12.294-2.452c0.803,0.149,1.592,0.514,2.315,0.911
		c0.916,0.503,1.317,1.389,1.241,2.422c-0.077,1.046-0.789,1.62-1.709,1.951c-2.062,0.742-4.164,0.582-6.271,0.244
		C140.651,341.819,137.489,340.6,135.533,339.184z"/>
	<path fill="none" d="M111.412,339.296c-4.214,2.379-8.547,3.858-13.397,2.946c-1.604-0.301-2.395-1.116-2.475-2.222
		c-0.09-1.238,0.645-2.249,2.123-2.868c1.943-0.814,3.985-0.825,6.018-0.58C106.709,336.939,109.413,337.927,111.412,339.296z"/>
	<path fill="none" d="M141.095,194.928c1.611,4.764,3.126,9.247,4.714,13.942c-3.739-0.207-7.267-0.403-11.003-0.609
		C136.887,203.848,138.924,199.531,141.095,194.928z"/>
	<path d="M97.253,85.675c-1.902,2.619-3.258,5.478-4.006,8.629c-2.738,11.539,4.143,21.77,15.878,23.418
		c1.941,0.273,3.954,0.038,6.015,0.038c-0.09,0.388-0.231,1.069-0.407,1.742c-3.793,14.507-16.145,24.133-31.149,24.18
		c-5.183,0.016-9.989-1.248-13.868-4.958c-2.814-2.691-4.359-6.065-5.156-9.823c-0.091-0.43-0.139-0.871-0.261-1.292
		c-0.258-0.889-0.866-1.352-1.795-1.204c-0.93,0.148-1.472,0.789-1.296,1.699c0.333,1.719,0.66,3.466,1.26,5.103
		c2.894,7.901,8.72,12.466,16.933,13.321c13.515,1.408,24.641-3.518,33.042-14.159c3.498-4.43,5.055-9.837,6.113-15.338
		c0.161-0.835,0.461-1.411,1.2-1.909c2.169-1.463,3.792-3.419,4.757-5.875c0.483-1.229,0.175-2.136-0.796-2.504
		c-0.937-0.355-1.617,0.105-2.198,1.271c-0.555,1.112-1.245,2.157-2.047,3.187c-0.213-12.324-4.882-21.834-16.476-27.288
		c7.048-6.991,15.289-11.309,25.194-11.802c8.305-0.413,16.172,1.331,23.333,5.876c-1.64,1.201-3.137,2.329-4.666,3.412
		c-6.82,4.83-11.796,11.256-15.563,18.587c-3.557,6.922-6.757,14.027-10.096,21.061c-3.557,7.491-7.472,14.762-12.84,21.153
		c-4.888,5.82-10.643,10.539-17.785,13.273c-12.293,4.706-26.262,1.724-34.641-10.072c-9.65-13.585-8.975-32.38,1.872-45.601
		c8.069-9.835,18.59-14.895,31.302-15.212c2.69-0.067,5.393,0.421,8.09,0.654C97.215,85.386,97.234,85.531,97.253,85.675z"/>
	<path d="M132.025,115.131c3.726-10.071,7.245-20.064,14.071-28.436c2.111-2.59,4.764-4.478,7.644-6.076
		c0.272-0.151,0.915-0.001,1.171,0.238c5.38,5.028,7.144,12.448,4.482,19.322c-0.846,2.184-1.906,4.319-3.131,6.315
		c-3.513,5.722-9.045,8.26-15.42,9.154c-2.111,0.296-4.302,0.067-6.454-0.007C133.645,115.614,132.912,115.33,132.025,115.131z"/>
	<path d="M116.054,110.039c-0.039,0.799-0.164,1.605-0.096,2.394c0.097,1.124-0.493,1.491-1.443,1.786
		c-5.838,1.815-16.362-1.729-18.235-11.419c-1.11-5.742,0.329-10.916,3.821-15.573c0.526-0.701,1.001-0.56,1.624-0.283
		c8.006,3.552,12.481,9.789,13.947,18.317c0.101,0.59,0.186,1.186,0.229,1.782C115.973,108.041,116.005,109.04,116.054,110.039z"/>
	<path d="M132.635,241.247c-0.015-2.635,1.509-4.41,3.806-4.433c2.335-0.024,3.938,1.671,3.936,4.16
		c-0.002,2.632-1.641,4.542-3.899,4.542C134.203,245.517,132.649,243.792,132.635,241.247z"/>
</g>
</svg>
